<?xml version="1.0" encoding="utf-8"?>
<!-- Generator: Adobe Illustrator 24.1.2, SVG Export Plug-In . SVG Version: 6.00 Build 0)  -->
<svg version="1.1" id="Layer_1" xmlns="http://www.w3.org/2000/svg" xmlns:xlink="http://www.w3.org/1999/xlink" x="0px" y="0px"
	 viewBox="0 0 283.46 283.46" style="enable-background:new 0 0 283.46 283.46;" xml:space="preserve">
<style type="text/css">
	.st0{fill:#76B8CD;}
	.st1{fill:#ECF1F6;}
	.st2{fill:#4899B0;}
</style>
<g>
	<polygon class="st0" points="263.55,243.52 167.18,243.52 32.55,96.91 54.64,80.19 181.02,212.71 263.5,215 	"/>
	<polygon class="st1" points="11.05,174.13 83.25,174.13 98.23,191.11 11.05,191.11 	"/>
	<polygon class="st1" points="34.19,200.1 106.39,200.1 121.37,217.08 34.19,217.08 	"/>
	<polygon class="st1" points="58.89,226.54 131.09,226.54 146.07,243.52 58.89,243.52 	"/>
	<path class="st2" d="M248.38,176.27l-34.72-13.78h-41.91L161,147.72h43.71l-3.34-17.36l-53.03,1.57l-9.88-12.74l60.23-1.69
		l-2.92-14.67l-26.31-21.42l-24.48,12.85L110.1,39.8c0,0-54.46,40.38-55.45,40.38c-1,0,119.7,134.61,119.7,134.61h81.99
		L248.38,176.27z"/>
	<polyline class="st1" points="198.68,117.49 201.37,130.36 148.33,131.93 138.46,119.19 	"/>
	<polyline class="st1" points="204.7,147.72 213.66,162.48 171.75,162.48 161,147.72 	"/>
</g>
</svg>
