<?xml version="1.0" encoding="utf-8"?>
<!-- Generator: Adobe Illustrator 24.1.2, SVG Export Plug-In . SVG Version: 6.00 Build 0)  -->
<svg version="1.1" id="Layer_1" xmlns="http://www.w3.org/2000/svg" xmlns:xlink="http://www.w3.org/1999/xlink" x="0px" y="0px"
	 viewBox="0 0 283.46 283.46" style="enable-background:new 0 0 283.46 283.46;" xml:space="preserve">
<style type="text/css">
	.st0{fill:#674F91;}
	.st1{fill:#563B7F;}
	.st2{fill:#876AAC;}
	.st3{fill:#6E5C9C;}
	.st4{fill:#A78EC2;}
	.st5{fill:#B09BCA;}
	.st6{fill:none;}
	.st7{fill:#8B6AAC;}
	.st8{fill:#59ACD1;}
	.st9{fill:#79BCE8;}
	.st10{fill:#71519D;}
	.st11{fill:#7D5FA5;}
</style>
<g>
	<polygon class="st0" points="240.85,17.05 173.48,81.72 244.23,145.01 266.97,104.36 274.2,51.32 	"/>
	<polygon class="st1" points="266.97,104.36 222.44,88.78 244.23,145.01 	"/>
	<polygon class="st2" points="222.44,88.78 240.85,17.05 162.27,66.37 	"/>
	<polygon class="st3" points="36.68,113.32 9.26,176.7 83.6,248.02 113.85,187.82 115.5,133.37 	"/>
	<polygon class="st1" points="113.85,187.82 58.4,172.27 83.6,248.02 	"/>
	<polygon class="st2" points="58.4,172.27 36.68,113.32 9.26,176.7 	"/>
	<polygon class="st4" points="64.32,46.4 105.77,104.42 147.08,162.31 46.94,118.86 94.27,190.25 113.79,216.46 224.89,42.12 
		152.16,9.9 	"/>
	<polygon class="st5" points="105.77,104.42 64.32,46.4 46.94,118.86 147.08,162.31 	"/>
	<line class="st6" x1="247.09" y1="98.67" x2="150.56" y2="61.91"/>
	<polygon class="st7" points="46.94,118.86 147.08,162.31 152.16,268.07 94.27,190.25 	"/>
	<path class="st8" d="M198.82,30.62"/>
	<path class="st8" d="M224.89,42.12"/>
	<path class="st9" d="M224.89,42.12"/>
	<polygon class="st10" points="113.79,216.46 152.16,268.07 224.89,169.53 148.29,162.31 	"/>
	<polygon class="st11" points="224.89,42.12 148.29,162.31 224.89,169.53 247.09,98.67 	"/>
</g>
</svg>
