<?xml version="1.0" encoding="utf-8"?>
<!-- Generator: Adobe Illustrator 24.1.2, SVG Export Plug-In . SVG Version: 6.00 Build 0)  -->
<svg version="1.1" id="Layer_1" xmlns="http://www.w3.org/2000/svg" xmlns:xlink="http://www.w3.org/1999/xlink" x="0px" y="0px"
	 viewBox="0 0 283.46 283.46" style="enable-background:new 0 0 283.46 283.46;" xml:space="preserve">
<style type="text/css">
	.st0{fill:#ED7E68;}
	.st1{fill:#E16042;}
	.st2{fill:#C74E3A;}
	.st3{fill:#E15E3F;}
	.st4{fill:#DE715C;}
	.st5{fill:#FDEDEA;}
</style>
<g>
	<g>
		<polygon class="st0" points="134.3,49.47 198.6,16.48 277.11,66.66 273.39,153.44 129.75,274.6 6.36,158.64 6.36,51.7 
			78.18,16.48 		"/>
		<polygon class="st1" points="198.6,16.48 206.86,145.54 273.39,153.44 277.11,66.66 		"/>
		<polygon class="st2" points="206.86,145.54 130.49,204.73 129.75,274.6 273.39,153.44 		"/>
		<polygon class="st3" points="130.49,204.73 51.23,138.11 6.36,51.7 6.36,158.64 129.75,274.6 		"/>
		<polygon class="st4" points="130.49,51.7 100.57,124.64 130.49,204.73 51.23,138.11 80.41,84.96 		"/>
		<polygon class="st5" points="53.93,115.81 103.36,168.58 211.32,66.94 237.99,63.87 115.25,227.31 53.93,156.6 		"/>
	</g>
</g>
</svg>
