<?xml version="1.0" encoding="utf-8"?>
<!-- Generator: Adobe Illustrator 24.1.2, SVG Export Plug-In . SVG Version: 6.00 Build 0)  -->
<svg version="1.1" id="Layer_1" xmlns="http://www.w3.org/2000/svg" xmlns:xlink="http://www.w3.org/1999/xlink" x="0px" y="0px"
	 viewBox="0 0 283.46 283.46" style="enable-background:new 0 0 283.46 283.46;" xml:space="preserve">
<style type="text/css">
	.st0{fill:#C74E3A;}
	.st1{fill:#4899B0;}
	.st2{fill:#63ACC8;}
	.st3{fill:#B53729;}
</style>
<g>
	<polygon class="st0" points="189.16,99.95 197.43,18.78 189.21,15.19 178.19,24.05 170.79,93.29 143.69,124 162.93,130.04 	"/>
	<polyline class="st1" points="47.9,64.93 186.4,27 182.85,65.65 67.94,100.35 	"/>
	<polygon class="st2" points="196.07,145.21 158.7,133.48 145.29,148.87 173.75,158 227.34,224.74 238.42,226.71 248.21,216.93 	"/>
	<polygon class="st2" points="139.46,127.43 126,142.69 145.29,148.87 158.7,133.48 	"/>
	<polyline class="st1" points="76.6,105.5 183.51,81.23 179.4,103.65 93.25,125.99 	"/>
	<polygon class="st3" points="104.38,226.48 210.57,187.64 233.95,213.73 99.99,259.83 	"/>
	<polygon class="st3" points="108.3,188.18 193.1,157.17 207.82,179.93 104.54,216.68 	"/>
	<polygon class="st0" points="93.48,181.22 85.74,269.34 98.92,272.83 107.27,265.53 118.75,180.98 143.62,152.43 124.33,146.25 	
		"/>
	<polygon class="st2" points="91.69,112.43 49.56,56.75 35.32,54.8 29.95,62.12 78.98,127.6 126,142.69 139.46,127.43 	"/>
</g>
</svg>
