<?xml version="1.0" encoding="utf-8"?>
<!-- Generator: Adobe Illustrator 24.1.2, SVG Export Plug-In . SVG Version: 6.00 Build 0)  -->
<svg version="1.1" id="Layer_1" xmlns="http://www.w3.org/2000/svg" xmlns:xlink="http://www.w3.org/1999/xlink" x="0px" y="0px"
	 viewBox="0 0 283.46 283.46" style="enable-background:new 0 0 283.46 283.46;" xml:space="preserve">
<style type="text/css">
	.st0{fill:#64B1DE;}
	.st1{fill:#63ACC8;}
	.st2{fill:none;}
	.st3{fill:#59ACD1;}
	.st4{fill:#79BCE8;}
	.st5{fill:#7EC0EA;}
	.st6{fill:#8ECBE9;}
	.st7{fill:#D2EBF8;}
</style>
<g>
	<polygon class="st0" points="223.29,238.88 181.26,180.04 139.37,121.34 240.92,165.4 192.92,93 173.13,66.43 60.47,243.22 
		134.22,275.9 	"/>
	<polygon class="st1" points="181.26,180.04 223.29,238.88 240.92,165.4 139.37,121.34 	"/>
	<line class="st2" x1="37.96" y1="185.87" x2="135.85" y2="223.16"/>
	<polygon class="st0" points="240.92,165.4 139.37,121.34 134.22,14.1 192.92,93 	"/>
	<path class="st3" d="M86.9,254.88"/>
	<path class="st3" d="M60.47,243.22"/>
	<path class="st4" d="M60.47,243.22"/>
	<polygon class="st5" points="173.13,66.43 134.22,14.1 60.47,114.02 138.15,121.34 	"/>
	<polygon class="st6" points="60.47,243.22 138.15,121.34 60.47,114.02 37.96,185.87 	"/>
	<polygon class="st7" points="76.73,146.42 60.47,187.64 83.51,232.92 130.83,246.34 154.96,227.49 94.36,196.45 	"/>
</g>
</svg>
