<?xml version="1.0" encoding="utf-8"?>
<!-- Generator: Adobe Illustrator 24.1.2, SVG Export Plug-In . SVG Version: 6.00 Build 0)  -->
<svg version="1.1" id="Layer_1" xmlns="http://www.w3.org/2000/svg" xmlns:xlink="http://www.w3.org/1999/xlink" x="0px" y="0px"
	 viewBox="0 0 283.5 283.5" style="enable-background:new 0 0 283.5 283.5;" xml:space="preserve">
<style type="text/css">
	.st0{fill:#EFE9D8;}
	.st1{display:none;}
	.st2{display:inline;}
	.st3{clip-path:url(#SVGID_2_);}
	.st4{clip-path:url(#SVGID_4_);}
	.st5{clip-path:url(#SVGID_6_);}
	.st6{fill:#5A4484;}
	.st7{fill:#4B3372;}
	.st8{fill:#7C5DA8;}
	.st9{fill:#62508E;}
	.st10{fill:#AC83E5;}
	.st11{fill:#B291E8;}
	.st12{fill:none;}
	.st13{fill:#9A5CD6;}
	.st14{fill:#51A1C9;}
	.st15{fill:#6FB2E2;}
	.st16{fill:#7944B7;}
	.st17{fill:#8752C6;}
	.st18{fill:#E87461;}
	.st19{fill:#DA583F;}
	.st20{fill:#BD4637;}
	.st21{fill:#DA563D;}
	.st22{fill:#D86856;}
	.st23{fill:#FBEAE7;}
	.st24{fill:#2B4B60;}
	.st25{fill:#FDF0ED;}
	.st26{fill:#F6DCD8;}
	.st27{fill:#DD4969;}
	.st28{fill:#C36E50;}
	.st29{fill:#9A543F;}
	.st30{fill:#5BA7D7;}
	.st31{fill:#59A1BF;}
	.st32{fill:#73B7E4;}
	.st33{fill:#83C2E3;}
	.st34{fill:#CCE7F6;}
	.st35{fill:#428EA5;}
	.st36{fill:#AA3329;}
	.st37{fill:#6AAEC4;}
	.st38{fill:#E9EEF4;}
	.st39{fill:#EFD7B9;}
	.st40{fill:#5B2A09;}
	.st41{fill:#8C5834;}
	.st42{fill:#E2C4A3;}
	.st43{fill:#DDD4C3;}
	.st44{fill:#DEC394;}
	.st45{fill:#6D472C;}
	.st46{fill:#C19D56;}
	.st47{fill:#7F590B;}
	.st48{fill:#D3BA8D;}
	.st49{fill:#70513A;}
	.st50{fill:#50DD1B;}
	.st51{fill:#E01919;}
	.st52{fill:#1BAFDD;}
	.st53{fill:#81E561;}
	.st54{fill:#88D841;}
	.st55{fill:#50BC39;}
	.st56{fill:#52D83F;}
	.st57{fill:#66D656;}
	.st58{fill:#421D04;}
	.st59{fill:#EAD6C1;}
	.st60{fill:#DB3326;}
	.st61{fill:#2D99B2;}
	.st62{fill:#2CB3DD;}
	.st63{fill:#A52019;}
	.st64{fill:#CC0D0D;}
	.st65{fill:#FFFFFF;}
	.st66{fill:#EFD4B4;}
	.st67{fill:#F9E4C7;}
	.st68{fill:#F4F2ED;}
	.st69{fill:#846346;}
	.st70{fill:#7A5941;}
	.st71{fill:#634430;}
	.st72{fill:#B71313;}
	.st73{fill:#E5D9BD;}
	.st74{fill:#D6C8AB;}
	.st75{fill:#DDCFB3;}
	.st76{fill:#EADEC5;}
	.st77{fill:#EF1616;}
	.st78{fill:#C17E06;}
	.st79{fill:#F94141;}
	.st80{fill:#E3E80F;}
	.st81{fill:#B2AD00;}
	.st82{fill:#D60F0F;}
	.st83{fill:#55E014;}
	.st84{fill:#46AF0E;}
	.st85{fill:#DB1212;}
	.st86{fill:#239BE5;}
	.st87{fill:#128ECC;}
	.st88{fill:#8E22BA;}
	.st89{fill:#048DB7;}
	.st90{fill:#11ADEA;}
	.st91{fill:#F2E9DF;}
	.st92{fill:#F7F1F0;}
	.st93{fill:#443627;}
	.st94{font-family:'HiraKakuStdN-W8-83pv-RKSJ-H';}
	.st95{font-size:9.6298px;}
	.st96{fill:#E8C8A6;}
</style>
<g>
	<polygon class="st0" points="-390,-57 -385.7,-53.3 -384.8,-54.3 -388.8,-58.4 	"/>
	<polygon class="st0" points="-388.1,-59 -384.3,-54.8 -382.8,-56.7 -382.9,-57.9 -384.8,-60.3 -386.3,-60.4 	"/>
	<path class="st0" d="M-390.8-56.3l-6.5,6.2l-0.9,5.4l5.4-0.9l6.5-6.9L-390.8-56.3z M-395.9-46.2l-1.1-1.1l0.6-2.2l2.9,2.8
		L-395.9-46.2z"/>
</g>
<g id="Layer_2_1_">
</g>
<g id="mainScreenMockup.psd" class="st1">
	<g class="st2">
		<g>
			<g>
				<g>
					<g>
						<defs>
							<rect id="SVGID_1_" x="-171.8" y="-186.3" width="122" height="256.5"/>
						</defs>
						<clipPath id="SVGID_2_">
							<use xlink:href="#SVGID_1_"  style="overflow:visible;"/>
						</clipPath>
						<g transform="matrix(1 0 0 1 0 -7.629395e-06)" class="st3">
							
								<image style="overflow:visible;enable-background:new    ;" width="369" height="747" id="Layer_1_2_" xlink:href="3138F960C9C701DE.png"  transform="matrix(0.3388 0 0 0.3313 -173.3649 -181.7615)">
							</image>
						</g>
					</g>
				</g>
			</g>
		</g>
	</g>
	<g class="st2">
		<g>
			<g>
				<g>
					<g>
						<defs>
							<rect id="SVGID_3_" x="-171.8" y="-186.3" width="122" height="256.5"/>
						</defs>
						<clipPath id="SVGID_4_">
							<use xlink:href="#SVGID_3_"  style="overflow:visible;"/>
						</clipPath>
						<g transform="matrix(1 0 0 1 0 -7.629395e-06)" class="st4">
							
								<image style="overflow:visible;enable-background:new    ;" width="369" height="747" id="Layer_2_3_" xlink:href="3138F960C9C701DD.png"  transform="matrix(0.3388 0 0 0.3313 -173.3649 -181.7615)">
							</image>
						</g>
					</g>
				</g>
			</g>
		</g>
	</g>
	<g class="st2">
		<g>
			<g>
				<g>
					<g>
						<defs>
							<rect id="SVGID_5_" x="-171.8" y="-186.3" width="122" height="256.5"/>
						</defs>
						<clipPath id="SVGID_6_">
							<use xlink:href="#SVGID_5_"  style="overflow:visible;"/>
						</clipPath>
						<g transform="matrix(1 0 0 1 0 0)" class="st5">
							
								<image style="overflow:visible;enable-background:new    ;" width="286" height="148" id="Unit_panel" xlink:href="3138F960C9C701DA.png"  transform="matrix(0.3278 0 0 0.3205 -157.3913 13.3403)">
							</image>
						</g>
					</g>
				</g>
			</g>
		</g>
	</g>
</g>
<g>
	<polygon class="st6" points="-422.4,-64.5 -427.5,-59.7 -422.2,-55 -420.5,-58 -419.9,-62 	"/>
	<polygon class="st7" points="-420.5,-58 -423.8,-59.2 -422.2,-55 	"/>
	<polygon class="st8" points="-423.8,-59.2 -422.4,-64.5 -428.3,-60.8 	"/>
	<polygon class="st9" points="-437.7,-57.3 -439.7,-52.6 -434.2,-47.3 -431.9,-51.8 -431.8,-55.8 	"/>
	<polygon class="st7" points="-431.9,-51.8 -436.1,-52.9 -434.2,-47.3 	"/>
	<polygon class="st8" points="-436.1,-52.9 -437.7,-57.3 -439.7,-52.6 	"/>
	<polygon class="st10" points="-435.6,-62.3 -432.5,-58 -429.4,-53.7 -436.9,-56.9 -433.4,-51.6 -431.9,-49.6 -423.6,-62.7 
		-429.1,-65.1 	"/>
	<polygon class="st11" points="-432.5,-58 -435.6,-62.3 -436.9,-56.9 -429.4,-53.7 	"/>
	<line class="st12" x1="-422" y1="-58.4" x2="-429.2" y2="-61.2"/>
	<polygon class="st13" points="-436.9,-56.9 -429.4,-53.7 -429.1,-45.8 -433.4,-51.6 	"/>
	<path class="st14" d="M-425.6-63.5"/>
	<path class="st14" d="M-423.6-62.7"/>
	<path class="st15" d="M-423.6-62.7"/>
	<polygon class="st16" points="-431.9,-49.6 -429.1,-45.8 -423.6,-53.1 -429.3,-53.7 	"/>
	<polygon class="st17" points="-423.6,-62.7 -429.3,-53.7 -423.6,-53.1 -422,-58.4 	"/>
</g>
<g>
	<g>
		<polygon class="st18" points="-481.9,-54.6 -477,-57.1 -471,-53.2 -471.3,-46.7 -482.2,-37.5 -491.6,-46.3 -491.6,-54.4 
			-486.1,-57.1 		"/>
		<polygon class="st19" points="-477,-57.1 -476.3,-47.3 -471.3,-46.7 -471,-53.2 		"/>
		<polygon class="st20" points="-476.3,-47.3 -482.2,-42.8 -482.2,-37.5 -471.3,-46.7 		"/>
		<polygon class="st21" points="-482.2,-42.8 -488.2,-47.8 -491.6,-54.4 -491.6,-46.3 -482.2,-37.5 		"/>
		<polygon class="st22" points="-482.2,-54.4 -484.4,-48.8 -482.2,-42.8 -488.2,-47.8 -486,-51.9 		"/>
		<rect x="-478.5" y="-52.6" class="st23" width="4.4" height="12"/>
		<rect x="-482.3" y="-48.8" class="st23" width="12" height="4.4"/>
	</g>
</g>
<g>
	<path class="st24" d="M-485.5-31.9"/>
	<polygon class="st25" points="-465.4,-20.7 -466.6,-21.5 -468.7,-19.6 -469.7,-19.6 -469,-17.2 -468.5,-17.2 -466.9,-15.3 
		-465.9,-15.9 -465.7,-16.6 -466.8,-18.3 -465.4,-19.3 	"/>
	<polygon class="st26" points="-471,-19.7 -471,-17 -469,-17.2 -469.7,-19.6 	"/>
	<polygon class="st25" points="-476.2,-20.6 -479.6,-27 -482.8,-27.3 -486.2,-25.4 -488.4,-18.8 -487.5,-13.2 -484.1,-10.4 
		-480.8,-10.4 -477.2,-14.9 	"/>
	<polygon class="st27" points="-478.3,-20 -480.6,-24.1 -482.6,-24.3 -484.8,-23.1 -486.3,-18.8 -485.7,-15.2 -483.4,-13.3 
		-481.3,-13.3 -479,-16.3 	"/>
	<polygon class="st25" points="-481.8,-20.1 -481.2,-17.8 -482.6,-16.6 -483.4,-19.3 	"/>
	<polygon class="st28" points="-470.9,-21.1 -479.4,-26.9 -479.6,-27 -476.2,-20.6 -477,-16.1 -470.3,-17.9 	"/>
	<polygon class="st29" points="-480.8,-10.4 -472,-14.9 -470.3,-17.9 -477,-16.1 -477.2,-14.9 	"/>
</g>
<g>
	<polygon class="st30" points="-469,18 -472.5,13.1 -476,8.2 -467.6,11.9 -471.5,5.8 -473.2,3.6 -482.5,18.3 -476.4,21 	"/>
	<polygon class="st31" points="-472.5,13.1 -469,18 -467.6,11.9 -476,8.2 	"/>
	<line class="st12" x1="-484.4" y1="13.6" x2="-476.3" y2="16.6"/>
	<polygon class="st30" points="-467.6,11.9 -476,8.2 -476.4,-0.7 -471.5,5.8 	"/>
	<path class="st14" d="M-480.3,19.3"/>
	<path class="st14" d="M-482.5,18.3"/>
	<path class="st15" d="M-482.5,18.3"/>
	<polygon class="st32" points="-473.2,3.6 -476.4,-0.7 -482.5,7.6 -476.1,8.2 	"/>
	<polygon class="st33" points="-482.5,18.3 -476.1,8.2 -482.5,7.6 -484.4,13.6 	"/>
	<polygon class="st34" points="-481.2,10.3 -482.5,13.7 -480.6,17.5 -476.7,18.6 -474.7,17 -479.7,14.4 	"/>
</g>
<g>
	<polygon class="st20" points="-425.3,-23.5 -424.6,-30.6 -425.3,-31 -426.2,-30.2 -426.9,-24.1 -429.3,-21.3 -427.6,-20.8 	"/>
	<polyline class="st35" points="-437.7,-26.6 -425.5,-29.9 -425.8,-26.5 -436,-23.4 	"/>
	<polygon class="st31" points="-424.7,-19.5 -428,-20.5 -429.2,-19.2 -426.6,-18.3 -421.9,-12.5 -420.9,-12.3 -420.1,-13.1 	"/>
	<polygon class="st31" points="-429.7,-21 -430.9,-19.7 -429.2,-19.2 -428,-20.5 	"/>
	<polyline class="st35" points="-435.2,-23 -425.8,-25.1 -426.1,-23.1 -433.7,-21.2 	"/>
	<polygon class="st36" points="-432.8,-12.3 -423.4,-15.7 -421.3,-13.4 -433.1,-9.4 	"/>
	<polygon class="st36" points="-432.4,-15.7 -424.9,-18.4 -423.6,-16.4 -432.7,-13.2 	"/>
	<polygon class="st20" points="-433.7,-16.3 -434.4,-8.5 -433.2,-8.2 -432.5,-8.9 -431.5,-16.3 -429.3,-18.8 -431,-19.4 	"/>
	<polygon class="st31" points="-433.9,-22.4 -437.6,-27.3 -438.9,-27.5 -439.3,-26.8 -435,-21 -430.9,-19.7 -429.7,-21 	"/>
</g>
<g>
	<polygon class="st37" points="-416.4,19.1 -425.8,19.1 -439,4.7 -436.9,3.1 -424.5,16.1 -416.4,16.3 	"/>
	<polygon class="st38" points="-441.1,12.3 -434.1,12.3 -432.6,14 -441.1,14 	"/>
	<polygon class="st38" points="-438.9,14.9 -431.8,14.9 -430.3,16.5 -438.9,16.5 	"/>
	<polygon class="st38" points="-436.5,17.5 -429.4,17.5 -427.9,19.1 -436.5,19.1 	"/>
	<path class="st35" d="M-417.9,12.5l-3.4-1.3h-4.1l-1-1.4h4.3l-0.3-1.7l-5.2,0.2l-1-1.2l5.9-0.2l-0.3-1.4l-2.6-2.1l-2.4,1.3
		l-3.4-5.3c0,0-5.3,4-5.4,4s11.7,13.2,11.7,13.2h8L-417.9,12.5z"/>
	<polyline class="st38" points="-422.7,6.8 -422.5,8 -427.7,8.2 -428.6,6.9 	"/>
	<polyline class="st38" points="-422.2,9.7 -421.3,11.2 -425.4,11.2 -426.4,9.7 	"/>
</g>
<g>
	<g id="Layer_1_1_">
		<polygon class="st39" points="-113.7,331.4 -129.5,305.8 -353,305.8 -379.9,335.7 -379.9,451.9 -113.7,452.4 		"/>
		<polygon class="st40" points="-117,403.3 -117.6,330 -132.3,308.7 -352.8,309.8 -376.2,337.3 -374.9,404.8 		"/>
		<polygon class="st41" points="-118.6,401.3 -119.2,331.5 -133.8,311.2 -351.8,312.3 -374.9,338.4 -373.7,402.7 		"/>
		<polygon class="st40" points="-122.6,397.9 -123.2,332.9 -137.4,314.2 -350,315.1 -372.6,339.4 -371.3,399.2 		"/>
		<polygon class="st42" points="-124.6,396.4 -125.1,334.1 -139.1,316.1 -348.3,317 -370.5,340.3 -369.3,397.7 		"/>
		<polygon class="st0" points="-287.2,320.2 -340.2,320.2 -363.3,344.9 -363.3,385.5 -285.3,383.7 		"/>
		<circle class="st43" cx="-323.6" cy="353.4" r="29.6"/>
		<path class="st44" d="M-293.5,325.3"/>
		<polygon class="st45" points="-279.6,395.1 -280.2,376.7 -280.3,374.9 -365.8,376.7 -365.8,395.1 		"/>
		<text transform="matrix(1 0 0 1 -360.3109 388.1111)" class="st0 st94" style="font-size:9.7484px;">Stinky </text>
		<text transform="matrix(1 0 0 1 -320.661 388.1111)" class="st0 st94" style="font-size:11.7079px;">John</text>
		<g>
			<polygon class="st46" points="-303,344.5 -302.2,347.8 -299.4,347 -299.1,348 -306,350 -302.7,353.4 -294.2,348.5 -293.7,342.3 
				-298.7,340.4 			"/>
			<polygon class="st46" points="-326.4,344.1 -316.9,337.4 -304.6,333.3 -307.6,340.8 -307.2,346.9 			"/>
			<polygon class="st47" points="-334.1,355.5 -337,367.4 -339.7,367.4 -340.5,372.1 -330.6,372.1 -330.6,356.2 			"/>
			<polyline class="st47" points="-327.1,355.2 -323.7,359.8 -316.6,365.8 -318.3,369 -321.8,369.5 -321.8,371.8 -312.5,371.8 
				-312,363.5 -315.4,352.9 			"/>
			<g>
				<g>
					<g>
						<polygon class="st47" points="-305.8,356.3 -302.9,355.5 -299.8,356.6 -301.4,361.9 -305.7,367 -308.5,364.9 -309.7,362.6 
							-311.1,357.9 						"/>
					</g>
					<polygon class="st47" points="-305.9,365.7 -303.7,366.7 -302.8,365.9 -304.7,363.9 -303.8,363.1 -301,363.3 -300.4,362 
						-302.7,359.9 -301.7,359.3 -299.4,359.6 -299.2,358.5 -301,356.8 					"/>
				</g>
			</g>
			<polygon class="st46" points="-332.3,356.8 -335.3,368.7 -338,368.7 -338.8,373.4 -328.9,373.4 -328.9,357.5 			"/>
			<polyline class="st46" points="-322.7,356.7 -319.6,361.3 -312.1,367.3 -313.9,370.5 -317.4,371 -317.4,373.2 -308.1,373.2 
				-307.5,365 -311,354.3 			"/>
			<polygon class="st46" points="-333.5,342.1 -340.5,349.1 -335.8,365.3 -322.2,366.2 -316.3,360.8 -302.7,358.6 -302,350.3 
				-306.3,345.5 			"/>
			<polygon class="st48" points="-337,348 -331.5,344.6 -309.7,350.1 -302.4,355.5 -302,350.3 -306.3,345.5 -333.5,342.1 			"/>
			<path class="st46" d="M-335.4,335.4l-11.9,2.3l-2.3,3.8l-4.7,1.5c0,0-0.6,2.1-0.5,2.5c0,0.4,1.5,5.6,1.5,5.6l10.2,0.8l9.9-0.7
				l3.9-7.8l-0.6-11.8L-335.4,335.4z"/>
		</g>
	</g>
	<g>
		<g id="Layer_3">
			<polygon class="st49" points="-241.4,326.9 -136.2,326.9 -131.8,337 -137.5,344.6 -241.4,344.6 -246.1,335.7 			"/>
			<polygon class="st50" points="-239,329 -161.4,329 -158.1,336.7 -162.3,342.5 -239,342.5 -242.5,335.7 			"/>
			<polygon class="st49" points="-241.4,349.4 -136.2,349.4 -131.8,359.5 -137.5,367.1 -241.4,367.1 -246.1,358.2 			"/>
			<polygon class="st51" points="-239.9,352 -193,352 -191,359.1 -193.6,364.4 -239.9,364.4 -242,358.2 			"/>
			<polygon class="st49" points="-242.3,373 -137.2,373 -132.7,383.2 -138.4,390.7 -242.3,390.7 -247.1,381.9 			"/>
			<polygon class="st52" points="-238.8,375.5 -140.4,375.5 -136.2,382.8 -141.6,388.3 -238.8,388.3 -243.3,381.9 			"/>
		</g>
		<g id="Layer_4">
			<g>
				<path class="st24" d="M-266.1,345.3"/>
				<polygon class="st25" points="-247.3,355.8 -248.4,355 -250.4,356.9 -251.3,356.8 -250.7,359.1 -250.3,359 -248.7,360.9 
					-247.8,360.3 -247.6,359.6 -248.6,358 -247.3,357.1 				"/>
				<polygon class="st26" points="-252.6,356.7 -252.6,359.3 -250.7,359.1 -251.3,356.8 				"/>
				<polygon class="st25" points="-257.4,355.9 -260.6,349.9 -263.6,349.6 -266.8,351.4 -268.8,357.6 -268,362.8 -264.8,365.5 
					-261.7,365.5 -258.4,361.2 				"/>
				<polygon class="st27" points="-259.4,356.5 -261.5,352.6 -263.4,352.4 -265.5,353.6 -266.8,357.6 -266.3,361 -264.2,362.7 
					-262.2,362.7 -260,359.9 				"/>
				<polygon class="st25" points="-262.7,356.4 -262.1,358.5 -263.4,359.6 -264.1,357.1 				"/>
				<polygon class="st28" points="-252.5,355.4 -260.4,350 -260.6,349.9 -257.4,355.9 -258.2,360.1 -251.9,358.4 				"/>
				<polygon class="st29" points="-261.7,365.5 -253.5,361.2 -251.9,358.4 -258.2,360.1 -258.4,361.2 				"/>
			</g>
		</g>
		<g>
			<g>
				<polygon class="st53" points="-260.9,329 -256.8,326.9 -251.9,330.1 -252.1,335.5 -261.2,343.2 -269,335.9 -269,329.1 
					-264.4,326.9 				"/>
				<polygon class="st54" points="-256.8,326.9 -256.3,335 -252.1,335.5 -251.9,330.1 				"/>
				<polygon class="st55" points="-256.3,335 -261.1,338.8 -261.2,343.2 -252.1,335.5 				"/>
				<polygon class="st56" points="-261.1,338.8 -266.1,334.6 -269,329.1 -269,335.9 -261.2,343.2 				"/>
				<polygon class="st57" points="-261.1,329.1 -263,333.7 -261.1,338.8 -266.1,334.6 -264.3,331.2 				"/>
				<rect x="-258.1" y="330.6" class="st23" width="3.7" height="10"/>
				<rect x="-261.2" y="333.7" class="st23" width="10" height="3.7"/>
			</g>
		</g>
		<g>
			<polygon class="st30" points="-252.5,389.3 -255.6,385 -258.6,380.8 -251.3,384 -254.7,378.8 -256.1,376.8 -264.3,389.6 
				-258.9,391.9 			"/>
			<polygon class="st31" points="-255.6,385 -252.5,389.3 -251.3,384 -258.6,380.8 			"/>
			<line class="st12" x1="-265.9" y1="385.4" x2="-258.8" y2="388.1"/>
			<polygon class="st30" points="-251.3,384 -258.6,380.8 -258.9,373.1 -254.7,378.8 			"/>
			<path class="st14" d="M-262.4,390.4"/>
			<path class="st14" d="M-264.3,389.6"/>
			<path class="st15" d="M-264.3,389.6"/>
			<polygon class="st32" points="-256.1,376.8 -258.9,373.1 -264.3,380.3 -258.7,380.8 			"/>
			<polygon class="st33" points="-264.3,389.6 -258.7,380.8 -264.3,380.3 -265.9,385.4 			"/>
			<polygon class="st34" points="-263.1,382.6 -264.3,385.6 -262.6,388.8 -259.2,389.8 -257.5,388.4 -261.8,386.2 			"/>
		</g>
	</g>
	<g>
		<g>
			<polygon class="st6" points="-167.8,415.5 -174.3,421.8 -167.4,428 -165.2,424 -164.5,418.8 			"/>
			<polygon class="st7" points="-165.2,424 -169.6,422.5 -167.4,428 			"/>
			<polygon class="st8" points="-169.6,422.5 -167.8,415.5 -175.4,420.3 			"/>
			<polygon class="st9" points="-187.6,424.9 -190.3,431 -183.1,438 -180.1,432.1 -180,426.8 			"/>
			<polygon class="st7" points="-180.1,432.1 -185.5,430.6 -183.1,438 			"/>
			<polygon class="st8" points="-185.5,430.6 -187.6,424.9 -190.3,431 			"/>
			<polygon class="st10" points="-184.9,418.4 -180.9,424 -176.9,429.6 -186.6,425.4 -182,432.4 -180.1,434.9 -169.3,417.9 
				-176.4,414.8 			"/>
			<polygon class="st11" points="-180.9,424 -184.9,418.4 -186.6,425.4 -176.9,429.6 			"/>
			<line class="st12" x1="-167.2" y1="423.4" x2="-176.5" y2="419.9"/>
			<polygon class="st13" points="-186.6,425.4 -176.9,429.6 -176.4,439.9 -182,432.4 			"/>
			<path class="st14" d="M-171.9,416.8"/>
			<path class="st14" d="M-169.3,417.9"/>
			<path class="st15" d="M-169.3,417.9"/>
			<polygon class="st16" points="-180.1,434.9 -176.4,439.9 -169.3,430.3 -176.8,429.6 			"/>
			<polygon class="st17" points="-169.3,417.9 -176.8,429.6 -169.3,430.3 -167.2,423.4 			"/>
		</g>
		<g>
			
				<text transform="matrix(1.0765 6.368487e-02 -5.908595e-02 0.9983 -162.0429 434.3111)" class="st94" style="fill:#1C1205; font-size:15.3915px;">5</text>
		</g>
		<text transform="matrix(0.9943 0 0 1 -146.6187 432.6638)" class="st93 st94 st95">/30</text>
	</g>
	<g>
		<polygon class="st40" points="-326.1,438.6 -325.4,416.1 -344.3,408.4 -361.7,415.6 -362.9,437 -343.7,445.9 		"/>
		<polygon class="st41" points="-327.6,437 -326.9,416.3 -344.3,409.2 -360.3,415.8 -361.4,435.6 -343.8,443.8 		"/>
		<polygon class="st58" points="-330.1,435.7 -329.5,418.2 -344.3,412.2 -357.8,417.8 -358.8,434.5 -343.8,441.5 		"/>
		<polygon class="st59" points="-331.2,435.3 -330.7,420 -344.3,414.7 -356.7,419.6 -357.6,434.2 -343.9,440.3 		"/>
	</g>
	<g>
		<polygon class="st60" points="-339.1,425 -336.6,418.8 -337.3,418.3 -338.4,418.8 -340.5,424.1 -343.5,426 -342,426.8 		"/>
		<polyline class="st61" points="-350.3,419.6 -337.7,419.2 -338.9,422.2 -349.4,422.7 		"/>
		<polygon class="st62" points="-339.5,428.6 -342.4,427 -343.9,428 -341.7,429.2 -338.6,435.5 -337.7,435.8 -336.7,435.2 		"/>
		<polygon class="st62" points="-343.9,426.2 -345.4,427.1 -343.9,428 -342.4,427 		"/>
		<polyline class="st61" points="-348.8,423.3 -339.2,423.4 -340,425.1 -347.8,425.2 		"/>
		<polygon class="st63" points="-349.1,433.3 -339.2,432.2 -337.8,434.7 -350.2,435.8 		"/>
		<polygon class="st63" points="-347.9,430.3 -340,429.5 -339.3,431.6 -348.9,432.5 		"/>
		<polygon class="st60" points="-349,429.5 -351.6,436.3 -350.6,436.8 -349.7,436.4 -346.9,430 -344.1,428.2 -345.6,427.4 		"/>
		<polygon class="st62" points="-347.7,424.1 -350,419 -351.2,418.5 -351.8,419 -349.1,425 -345.4,427.1 -343.9,426.2 		"/>
	</g>
	<g>
		<polygon class="st40" points="-272.4,439.6 -271.6,417.2 -290.6,409.5 -307.9,416.7 -309.1,438.1 -290,447 		"/>
		<polygon class="st41" points="-273.8,438.1 -273.1,417.4 -290.6,410.3 -306.5,416.9 -307.6,436.6 -290,444.9 		"/>
		<polygon class="st58" points="-276.3,436.8 -275.8,419.3 -290.5,413.3 -304,418.9 -305,435.6 -290.1,442.6 		"/>
		<polygon class="st59" points="-277.4,436.4 -276.9,421.1 -290.5,415.8 -303,420.7 -303.8,435.3 -290.1,441.4 		"/>
	</g>
	<g>
		<g>
			<polygon class="st64" points="-290.2,418 -299.3,420.5 -299.5,430.8 -290.3,440.2 -281.6,431.7 -280.9,420.5 			"/>
			<polygon class="st65" points="-290.3,419.9 -296.7,422.3 -296.7,430.3 -290.6,434.2 -283.2,430.7 -283.3,422.1 			"/>
			<polygon class="st64" points="-292.9,430.5 -291.1,430.6 -286.9,430.9 -286.4,426.1 -285.4,426.1 -289.7,423.1 -294.3,425.5 
				-293,425.5 			"/>
			<polygon class="st65" points="-290.9,428 -288.6,428.3 -288.9,431 -290.7,430.9 			"/>
		</g>
	</g>
	<g>
		<polygon class="st40" points="-219.8,438.9 -219,416.5 -238,408.7 -255.3,415.9 -256.5,437.4 -237.4,446.3 		"/>
		<polygon class="st41" points="-221.2,437.3 -220.5,416.7 -238,409.5 -253.9,416.2 -255,435.9 -237.4,444.1 		"/>
		<polygon class="st58" points="-223.7,436.1 -223.1,418.6 -237.9,412.5 -251.4,418.2 -252.4,434.9 -237.5,441.8 		"/>
		<polygon class="st59" points="-224.8,435.6 -224.3,420.3 -237.9,415.1 -250.4,420 -251.2,434.6 -237.5,440.7 		"/>
	</g>
	<g>
		<g>
			<polygon class="st37" points="-226.4,435.7 -235.3,435.7 -247.7,422.2 -245.7,420.6 -234,432.9 -226.4,433.1 			"/>
			<polygon class="st65" points="-249.7,429.3 -243.1,429.3 -241.7,430.9 -249.7,430.9 			"/>
			<polygon class="st65" points="-247.6,431.7 -240.9,431.7 -239.5,433.3 -247.6,433.3 			"/>
			<polygon class="st65" points="-245.3,434.1 -238.6,434.1 -237.2,435.7 -245.3,435.7 			"/>
			<path class="st35" d="M-227.8,429.5l-3.2-1.3h-3.9l-1-1.4h4l-0.3-1.6l-4.9,0.1l-0.9-1.2l5.6-0.2l-0.3-1.4l-2.4-2l-2.3,1.2l-3.2-5
				c0,0-5,3.7-5.1,3.7s11.1,12.4,11.1,12.4h7.6L-227.8,429.5z"/>
			<polyline class="st65" points="-232.4,424 -232.1,425.2 -237,425.4 -237.9,424.2 			"/>
			<polyline class="st65" points="-231.8,426.8 -231,428.2 -234.9,428.2 -235.9,426.8 			"/>
		</g>
	</g>
</g>
<g>
	<g id="Layer_4_1_">
		<polygon class="st66" points="-313.8,-124.8 -313.8,-321.6 -456.4,-302.8 -456.4,-124.8 		"/>
		<polygon class="st67" points="-313.8,-361.5 -322.2,-370.3 -442,-370.3 -456.4,-359.4 -456.4,-297.4 -313.8,-316.6 		"/>
	</g>
	<g id="Layer_3_1_">
		<polygon class="st68" points="-388.9,-361.4 -428.1,-361.4 -445.1,-344.4 -445.1,-316.6 -387.4,-317.8 		"/>
		<path class="st44" d="M-431.8-347.5"/>
		
			<image style="overflow:visible;enable-background:new    ;" width="714" height="610" xlink:href="3138F960C9C701D5.png"  transform="matrix(6.570997e-02 0 0 6.570997e-02 -439.5086 -356.8566)">
		</image>
		<polygon class="st67" points="-445.1,-344.4 -428.1,-361.4 -442.3,-361.4 		"/>
		<polygon class="st69" points="-384.2,-302.9 -384.6,-316.5 -384.7,-317.8 -447.9,-316.5 -447.9,-302.9 		"/>
		<text transform="matrix(1 0 0 1 -433.5204 -306.7942)" class="st0 st94" style="font-size:8.6578px;">Steves</text>
		<g>
			<polygon class="st70" points="-327.4,-269.1 -444.1,-269.1 -444.1,-284.5 -328.2,-284.5 -325.2,-276.7 			"/>
			<polygon class="st71" points="-422.5,-270.2 -331.2,-270.8 -332,-282.1 -422.5,-282.1 			"/>
			<rect x="-421.2" y="-281.1" class="st51" width="11.5" height="9.6"/>
			<polygon class="st69" points="-419.5,-264.9 -419.7,-272.1 -419.7,-272.9 -448,-272.1 -448,-264.9 			"/>
			<g>
				<g>
					
						<text transform="matrix(0.9999 -1.100217e-02 1.100217e-02 0.9999 -447.144 -266.7838)" class="st0 st94" style="font-size:4.6799px;">Head size</text>
				</g>
			</g>
			<polygon class="st72" points="-330.7,-283.7 -336.4,-282.4 -338.6,-273.7 -331.3,-269.1 -323.4,-272.8 -324.3,-280.6 			"/>
			<rect x="-332.7" y="-281.1" class="st0" width="3" height="9"/>
			<rect x="-335.7" y="-278.1" class="st0" width="9" height="3"/>
			<g>
				<polygon class="st73" points="-426.6,-280 -426.4,-279 -425.6,-279.3 -425.5,-279 -427.5,-278.4 -426.5,-277.4 -424.1,-278.8 
					-423.9,-280.6 -425.4,-281.2 				"/>
				<polygon class="st73" points="-433.4,-280.1 -430.6,-282 -427.1,-283.2 -428,-281 -427.8,-279.3 				"/>
				<polygon class="st74" points="-435.6,-276.8 -436.5,-273.3 -437.2,-273.3 -437.5,-272 -434.6,-272 -434.6,-276.6 				"/>
				<polyline class="st74" points="-433.6,-276.9 -432.6,-275.5 -430.5,-273.8 -431,-272.9 -432.1,-272.7 -432.1,-272.1 
					-429.4,-272.1 -429.2,-274.5 -430.2,-277.5 				"/>
				<g>
					<g>
						<g>
							<polygon class="st75" points="-427.4,-276.6 -426.6,-276.8 -425.7,-276.5 -426.1,-274.9 -427.4,-273.5 -428.2,-274.1 
								-428.6,-274.7 -428.9,-276.1 							"/>
						</g>
						<polygon class="st75" points="-427.5,-273.8 -426.8,-273.6 -426.6,-273.8 -427.1,-274.3 -426.8,-274.6 -426,-274.5 
							-425.9,-274.9 -426.5,-275.5 -426.2,-275.7 -425.6,-275.6 -425.5,-275.9 -426,-276.4 						"/>
					</g>
				</g>
				<polygon class="st73" points="-435.1,-276.4 -436,-273 -436.7,-273 -437,-271.6 -434.1,-271.6 -434.1,-276.2 				"/>
				<polyline class="st73" points="-432.3,-276.4 -431.4,-275.1 -429.3,-273.4 -429.8,-272.5 -430.8,-272.3 -430.8,-271.7 
					-428.1,-271.7 -427.9,-274 -428.9,-277.1 				"/>
				<polygon class="st73" points="-435.4,-280.7 -437.5,-278.6 -436.1,-273.9 -432.2,-273.7 -430.5,-275.3 -426.5,-275.9 
					-426.3,-278.3 -427.6,-279.7 				"/>
				<polygon class="st76" points="-436.5,-279 -434.9,-279.9 -428.6,-278.4 -426.4,-276.8 -426.3,-278.3 -427.6,-279.7 
					-435.4,-280.7 				"/>
				<path class="st77" d="M-436-282.6l-3.4,0.7l-0.7,1.1l-1.4,0.4c0,0-0.2,0.6-0.1,0.7c0,0.1,0.4,1.6,0.4,1.6l2.9,0.2l2.9-0.2
					l1.1-2.3l-0.2-3.4L-436-282.6z"/>
			</g>
			<rect x="-407.4" y="-281.1" class="st51" width="11.5" height="9.6"/>
			<rect x="-394.1" y="-281.3" class="st51" width="11.5" height="9.6"/>
		</g>
		<g>
			<polygon class="st70" points="-327.3,-246.9 -443.9,-246.9 -443.9,-262.2 -328.1,-262.2 -325.1,-254.5 			"/>
			<polygon class="st71" points="-422.4,-248.2 -331.1,-248.8 -331.9,-260.1 -422.4,-260.1 			"/>
			<polygon class="st69" points="-419.4,-242.9 -419.6,-250.1 -419.6,-250.9 -447.9,-250.1 -447.9,-242.9 			"/>
			<g>
				<g>
					
						<text transform="matrix(0.9999 -1.100217e-02 1.100217e-02 0.9999 -447.0721 -244.8038)" class="st0 st94" style="font-size:4.6799px;">Belly size</text>
				</g>
			</g>
			<polygon class="st78" points="-330.6,-261.7 -336.3,-260.4 -338.6,-251.8 -331.3,-247.2 -323.3,-250.8 -324.2,-258.7 			"/>
			<rect x="-332.6" y="-259.1" class="st0" width="3" height="9"/>
			<rect x="-335.7" y="-256.1" class="st0" width="9" height="3"/>
			<g>
				<polygon class="st73" points="-426.7,-257 -426.5,-256.1 -425.7,-256.3 -425.6,-256 -427.6,-255.4 -426.6,-254.4 -424.2,-255.9 
					-424,-257.7 -425.5,-258.2 				"/>
				<polygon class="st73" points="-433.5,-257 -430.8,-259 -427.2,-260.2 -428.1,-258 -427.9,-256.2 				"/>
				<polygon class="st74" points="-435.7,-253.8 -436.6,-250.3 -437.4,-250.3 -437.6,-248.9 -434.7,-248.9 -434.7,-253.5 				"/>
				<polyline class="st74" points="-433.7,-253.8 -432.7,-252.5 -430.6,-250.7 -431.2,-249.8 -432.2,-249.7 -432.2,-249 
					-429.5,-249 -429.3,-251.4 -430.3,-254.5 				"/>
				<g>
					<g>
						<g>
							<polygon class="st75" points="-427.5,-253.5 -426.7,-253.7 -425.8,-253.4 -426.3,-251.9 -427.5,-250.4 -428.3,-251 
								-428.7,-251.7 -429.1,-253 							"/>
						</g>
						<polygon class="st75" points="-427.6,-250.8 -426.9,-250.5 -426.7,-250.7 -427.2,-251.3 -427,-251.5 -426.1,-251.5 
							-426,-251.9 -426.6,-252.5 -426.3,-252.6 -425.7,-252.6 -425.6,-252.9 -426.1,-253.4 						"/>
					</g>
				</g>
				<polygon class="st73" points="-435.2,-253.4 -436.1,-249.9 -436.9,-249.9 -437.1,-248.5 -434.2,-248.5 -434.2,-253.2 				"/>
				<polyline class="st73" points="-432.4,-253.4 -431.5,-252.1 -429.4,-250.3 -429.9,-249.4 -430.9,-249.3 -430.9,-248.6 
					-428.2,-248.6 -428,-251 -429,-254.1 				"/>
				<polygon class="st77" points="-435.5,-257.6 -437.6,-255.6 -436.2,-250.9 -432.3,-250.7 -430.6,-252.2 -426.6,-252.9 
					-426.4,-255.3 -427.7,-256.6 				"/>
				<polygon class="st79" points="-436.6,-255.9 -435,-256.9 -428.7,-255.3 -426.6,-253.8 -426.4,-255.3 -427.7,-256.6 
					-435.5,-257.6 				"/>
				<path class="st73" d="M-436.1-259.6l-3.5,0.7l-0.7,1.1l-1.4,0.4c0,0-0.2,0.6-0.2,0.7s0.4,1.6,0.4,1.6l2.9,0.2l2.9-0.2l1.1-2.3
					l-0.2-3.4L-436.1-259.6z"/>
			</g>
		</g>
		<g>
			<polygon class="st70" points="-327.3,-223.5 -444,-223.5 -444,-238.9 -328.1,-238.9 -325.1,-231.1 			"/>
			<polygon class="st71" points="-422.1,-224.9 -330.8,-225.5 -331.6,-236.8 -422.1,-236.8 			"/>
			<rect x="-421" y="-235.7" class="st80" width="11.5" height="9.6"/>
			<polygon class="st69" points="-419.4,-219.5 -419.6,-226.8 -419.6,-227.5 -447.9,-226.8 -447.9,-219.5 			"/>
			<g>
				<g>
					
						<text transform="matrix(0.9999 -1.100217e-02 1.100217e-02 0.9999 -444.2321 -221.4615)" class="st0 st94" style="font-size:4.6799px;">Leg size</text>
				</g>
			</g>
			<polygon class="st81" points="-330.6,-238.4 -336.3,-237.1 -338.6,-228.4 -331.3,-223.8 -323.3,-227.5 -324.2,-235.3 			"/>
			<rect x="-332.6" y="-235.8" class="st0" width="3" height="9"/>
			<rect x="-335.7" y="-232.7" class="st0" width="9" height="3"/>
			<g>
				<polygon class="st73" points="-427.8,-234.4 -427.6,-233.5 -426.8,-233.7 -426.7,-233.4 -428.7,-232.8 -427.7,-231.9 
					-425.3,-233.3 -425.1,-235.1 -426.6,-235.6 				"/>
				<polygon class="st73" points="-434.6,-234.6 -431.9,-236.5 -428.3,-237.7 -429.2,-235.5 -429,-233.7 				"/>
				<polygon class="st82" points="-436.8,-231.3 -437.7,-227.8 -438.5,-227.8 -438.7,-226.4 -435.8,-226.4 -435.8,-231.1 				"/>
				<polyline class="st82" points="-434.8,-231.3 -433.8,-230 -431.7,-228.3 -432.3,-227.4 -433.3,-227.2 -433.3,-226.5 
					-430.6,-226.5 -430.4,-228.9 -431.4,-232 				"/>
				<g>
					<g>
						<g>
							<polygon class="st75" points="-428.6,-231 -427.8,-231.3 -426.9,-231 -427.4,-229.4 -428.6,-227.9 -429.4,-228.5 
								-429.8,-229.2 -430.2,-230.6 							"/>
						</g>
						<polygon class="st75" points="-428.7,-228.3 -428,-228 -427.8,-228.2 -428.3,-228.8 -428.1,-229.1 -427.2,-229 -427.1,-229.4 
							-427.7,-230 -427.4,-230.2 -426.8,-230.1 -426.7,-230.4 -427.2,-230.9 						"/>
					</g>
				</g>
				<polygon class="st73" points="-436.7,-235.2 -438.7,-233.1 -437.3,-228.4 -433.4,-228.2 -431.7,-229.7 -427.7,-230.4 
					-427.5,-232.8 -428.8,-234.1 				"/>
				<polygon class="st76" points="-437.7,-233.4 -436.1,-234.4 -429.8,-232.8 -427.7,-231.3 -427.5,-232.8 -428.8,-234.1 
					-436.7,-235.2 				"/>
				<path class="st73" d="M-437.2-237.1l-3.5,0.7l-0.7,1.1l-1.4,0.4c0,0-0.2,0.6-0.1,0.7c0,0.1,0.4,1.6,0.4,1.6l2.9,0.2l2.9-0.2
					l1.1-2.3l-0.2-3.4L-437.2-237.1z"/>
				<polygon class="st77" points="-436.3,-230.9 -437.2,-227.4 -438,-227.4 -438.2,-226.1 -435.3,-226.1 -435.3,-230.7 				"/>
				<polyline class="st77" points="-433.5,-230.9 -432.6,-229.6 -430.5,-227.8 -431,-226.9 -432,-226.8 -432,-226.1 -429.3,-226.1 
					-429.1,-228.5 -430.1,-231.6 				"/>
			</g>
			<rect x="-408.4" y="-235.7" class="st80" width="11.5" height="9.6"/>
			<rect x="-395.8" y="-235.7" class="st80" width="11.5" height="9.6"/>
			<rect x="-383.2" y="-235.7" class="st80" width="11.5" height="9.6"/>
		</g>
		<g>
			<polygon class="st70" points="-327.1,-200.1 -443.7,-200.1 -443.7,-215.4 -327.9,-215.4 -324.9,-207.7 			"/>
			<polygon class="st71" points="-422.2,-201.4 -330.9,-202 -331.8,-213.3 -422.2,-213.3 			"/>
			<rect x="-421" y="-211.9" class="st83" width="11.5" height="9.6"/>
			<polygon class="st69" points="-419.2,-196.1 -419.4,-203.4 -419.5,-204.1 -447.8,-203.4 -447.8,-196.1 			"/>
			<g>
				<g>
					
						<text transform="matrix(0.9999 -1.100217e-02 1.100217e-02 0.9999 -446.9006 -197.7101)" class="st0 st94" style="font-size:4.1156px;">Udder size</text>
				</g>
			</g>
			<polygon class="st84" points="-330.8,-214.9 -336.5,-213.6 -338.7,-205 -331.4,-200.4 -323.5,-204.1 -324.4,-211.9 			"/>
			<rect x="-332.5" y="-212.3" class="st0" width="3" height="9"/>
			<rect x="-335.5" y="-209.3" class="st0" width="9" height="3"/>
			<g>
				<polygon class="st73" points="-427,-211.2 -426.7,-210.2 -425.9,-210.5 -425.8,-210.1 -427.8,-209.6 -426.9,-208.6 -424.4,-210 
					-424.2,-211.8 -425.7,-212.3 				"/>
				<polygon class="st73" points="-433.6,-211.3 -430.9,-213.2 -427.3,-214.4 -428.2,-212.2 -428.1,-210.5 				"/>
				<polygon class="st74" points="-435.9,-208 -436.7,-204.5 -437.5,-204.5 -437.7,-203.2 -434.9,-203.2 -434.9,-207.8 				"/>
				<polyline class="st74" points="-433.9,-208.1 -432.9,-206.7 -430.8,-205 -431.3,-204.1 -432.3,-203.9 -432.3,-203.3 
					-429.6,-203.3 -429.5,-205.7 -430.5,-208.7 				"/>
				<g>
					<g>
						<polygon class="st85" points="-427.5,-207.7 -426.7,-208 -425.8,-207.7 -426.2,-206.1 -427.5,-204.6 -428.3,-205.2 
							-428.7,-205.9 -429,-207.3 						"/>
					</g>
					<polygon class="st85" points="-427.6,-205 -426.9,-204.7 -426.7,-205 -427.2,-205.5 -426.9,-205.8 -426.1,-205.7 -426,-206.1 
						-426.6,-206.7 -426.3,-206.9 -425.7,-206.8 -425.6,-207.1 -426.1,-207.6 					"/>
				</g>
				<polygon class="st73" points="-435.7,-211.9 -437.7,-209.8 -436.4,-205.1 -432.4,-204.9 -430.7,-206.4 -426.8,-207.1 
					-426.6,-209.5 -427.8,-210.9 				"/>
				<polygon class="st76" points="-436.7,-210.2 -435.1,-211.1 -428.8,-209.5 -426.7,-208 -426.6,-209.5 -427.8,-210.9 
					-435.7,-211.9 				"/>
				<path class="st73" d="M-436.2-213.8l-3.4,0.7l-0.7,1.1l-1.4,0.4c0,0-0.2,0.6-0.1,0.7c0,0.1,0.4,1.6,0.4,1.6l2.9,0.2l2.9-0.2
					l1.1-2.3l-0.2-3.4L-436.2-213.8z"/>
				<polygon class="st73" points="-435.4,-207.6 -436.2,-204.1 -437,-204.1 -437.2,-202.8 -434.4,-202.8 -434.4,-207.4 				"/>
				<polyline class="st73" points="-432.6,-207.6 -431.7,-206.3 -429.5,-204.6 -430,-203.6 -431,-203.5 -431,-202.8 -428.3,-202.8 
					-428.2,-205.2 -429.2,-208.3 				"/>
			</g>
		</g>
		<g>
			<polygon class="st70" points="-327,-175.6 -443.6,-175.6 -443.6,-190.9 -327.8,-190.9 -324.8,-183.2 			"/>
			<polygon class="st71" points="-422.1,-176.9 -330.8,-177.5 -331.7,-188.8 -422.1,-188.8 			"/>
			<rect x="-420.8" y="-187.4" class="st86" width="11.5" height="9.6"/>
			<polygon class="st69" points="-419.1,-171.6 -419.3,-178.8 -419.3,-179.6 -447.6,-178.8 -447.6,-171.6 			"/>
			<g>
				<g>
					
						<text transform="matrix(0.9999 -1.100217e-02 1.100217e-02 0.9999 -443.0748 -173.1794)" class="st0 st94" style="font-size:4.1156px;">Fin size</text>
				</g>
			</g>
			<polygon class="st87" points="-330.6,-190.4 -336.3,-189.1 -338.6,-180.5 -331.3,-175.8 -323.4,-179.5 -324.2,-187.4 			"/>
			<rect x="-332.3" y="-187.8" class="st0" width="3" height="9"/>
			<rect x="-335.3" y="-184.8" class="st0" width="9" height="3"/>
			<g>
				<polygon class="st73" points="-427.5,-186.4 -427.2,-185.5 -426.4,-185.7 -426.3,-185.4 -428.3,-184.8 -427.4,-183.8 
					-424.9,-185.2 -424.8,-187.1 -426.2,-187.6 				"/>
				<polygon class="st77" points="-434.4,-186.5 -431.6,-188.5 -428.1,-189.7 -428.9,-187.5 -428.8,-185.7 				"/>
				<polygon class="st74" points="-436.6,-183.2 -437.5,-179.8 -438.2,-179.8 -438.5,-178.4 -435.6,-178.4 -435.6,-183 				"/>
				<polyline class="st74" points="-434.6,-183.3 -433.6,-182 -431.5,-180.2 -432,-179.3 -433.1,-179.2 -433.1,-178.5 
					-430.4,-178.5 -430.2,-180.9 -431.2,-184 				"/>
				<g>
					<g>
						<g>
							<polygon class="st75" points="-428.4,-183 -427.6,-183.2 -426.7,-182.9 -427.1,-181.4 -428.4,-179.9 -429.2,-180.5 
								-429.5,-181.2 -429.9,-182.5 							"/>
						</g>
						<polygon class="st75" points="-428.4,-180.3 -427.8,-180 -427.5,-180.2 -428.1,-180.8 -427.8,-181 -427,-181 -426.8,-181.3 
							-427.5,-182 -427.2,-182.1 -426.5,-182 -426.5,-182.3 -427,-182.8 						"/>
					</g>
				</g>
				<polygon class="st73" points="-436.1,-182.9 -437,-179.4 -437.7,-179.4 -438,-178 -435.1,-178 -435.1,-182.6 				"/>
				<polyline class="st73" points="-433.3,-182.9 -432.4,-181.6 -430.2,-179.8 -430.7,-178.9 -431.8,-178.7 -431.8,-178.1 
					-429.1,-178.1 -428.9,-180.5 -429.9,-183.6 				"/>
				<polygon class="st73" points="-436.4,-187.1 -438.5,-185.1 -437.1,-180.4 -433.2,-180.1 -431.5,-181.7 -427.5,-182.3 
					-427.3,-184.7 -428.6,-186.1 				"/>
				<polygon class="st76" points="-437.4,-185.4 -435.8,-186.4 -429.5,-184.8 -427.4,-183.2 -427.3,-184.7 -428.6,-186.1 
					-436.4,-187.1 				"/>
				<path class="st73" d="M-437-189.1l-3.5,0.7l-0.7,1.1l-1.4,0.4c0,0-0.2,0.6-0.1,0.7s0.4,1.6,0.4,1.6l2.9,0.2l2.9-0.2l1.1-2.3
					l-0.2-3.4L-437-189.1z"/>
			</g>
		</g>
		<g>
			<polygon class="st70" points="-327,-152 -443.6,-152 -443.6,-167.3 -327.8,-167.3 -324.8,-159.5 			"/>
			<polygon class="st71" points="-421.4,-153.6 -330.1,-154.2 -331,-165.6 -421.4,-165.6 			"/>
			<rect x="-420.4" y="-164.4" class="st88" width="11.2" height="9.6"/>
			<polygon class="st69" points="-419.1,-148 -419.3,-155.2 -419.3,-156 -447.6,-155.2 -447.6,-148 			"/>
			<g>
				<g>
					
						<text transform="matrix(0.9999 -1.100217e-02 1.100217e-02 0.9999 -442.5367 -149.5715)" class="st0 st94" style="font-size:4.1156px;">Tail size</text>
				</g>
			</g>
			<g>
				<polygon class="st77" points="-427.6,-162.8 -427.4,-161.8 -426.6,-162.1 -426.5,-161.8 -428.5,-161.2 -427.5,-160.2 
					-425.1,-161.6 -424.9,-163.4 -426.4,-164 				"/>
				<polygon class="st73" points="-434.4,-162.9 -431.6,-164.8 -428.1,-166.1 -428.9,-163.9 -428.8,-162.1 				"/>
				<polygon class="st74" points="-436.6,-159.6 -437.5,-156.2 -438.2,-156.2 -438.5,-154.8 -435.6,-154.8 -435.6,-159.4 				"/>
				<polyline class="st74" points="-434.6,-159.7 -433.6,-158.4 -431.5,-156.6 -432,-155.7 -433.1,-155.6 -433.1,-154.9 
					-430.4,-154.9 -430.2,-157.3 -431.2,-160.4 				"/>
				<g>
					<g>
						<g>
							<polygon class="st75" points="-428.4,-159.4 -427.6,-159.6 -426.7,-159.3 -427.1,-157.8 -428.4,-156.3 -429.2,-156.9 
								-429.5,-157.6 -429.9,-158.9 							"/>
						</g>
						<polygon class="st75" points="-428.4,-156.7 -427.8,-156.4 -427.5,-156.6 -428.1,-157.2 -427.8,-157.4 -427,-157.4 
							-426.8,-157.7 -427.5,-158.3 -427.2,-158.5 -426.5,-158.4 -426.5,-158.7 -427,-159.2 						"/>
					</g>
				</g>
				<polygon class="st73" points="-436.1,-159.2 -437,-155.8 -437.7,-155.8 -438,-154.4 -435.1,-154.4 -435.1,-159 				"/>
				<polyline class="st73" points="-433.3,-159.3 -432.4,-157.9 -430.2,-156.2 -430.7,-155.3 -431.8,-155.1 -431.8,-154.5 
					-429.1,-154.5 -428.9,-156.9 -429.9,-159.9 				"/>
				<polygon class="st73" points="-436.4,-163.5 -438.5,-161.5 -437.1,-156.8 -433.2,-156.5 -431.5,-158.1 -427.5,-158.7 
					-427.3,-161.1 -428.6,-162.5 				"/>
				<polygon class="st76" points="-437.4,-161.8 -435.8,-162.8 -429.5,-161.2 -427.4,-159.6 -427.3,-161.1 -428.6,-162.5 
					-436.4,-163.5 				"/>
				<path class="st73" d="M-437-165.4l-3.5,0.7l-0.7,1.1l-1.4,0.4c0,0-0.2,0.6-0.1,0.7s0.4,1.6,0.4,1.6l2.9,0.2l2.9-0.2l1.1-2.3
					l-0.2-3.4L-437-165.4z"/>
			</g>
			<rect x="-407.6" y="-164.4" class="st88" width="11.2" height="9.6"/>
			<rect x="-395.1" y="-164.4" class="st88" width="11.2" height="9.6"/>
			<rect x="-382.4" y="-164.4" class="st88" width="11.2" height="9.6"/>
			<rect x="-369.9" y="-164.5" class="st88" width="11.2" height="9.6"/>
			<rect x="-357.1" y="-164.5" class="st88" width="11.2" height="9.6"/>
			<rect x="-344" y="-164.5" class="st88" width="11.2" height="9.6"/>
		</g>
		
			<rect x="-331.7" y="-360.9" transform="matrix(0.7071 -0.7071 0.7071 0.7071 158.389 -335.3789)" class="st71" width="12.1" height="4"/>
		
			<rect x="-327.7" y="-364.9" transform="matrix(0.7071 -0.7071 0.7071 0.7071 158.3474 -335.418)" class="st71" width="4" height="12.1"/>
		<g>
			<polygon class="st51" points="-439.4,-312.5 -438.8,-318.7 -439.4,-319 -440.3,-318.3 -440.8,-313 -442.9,-310.7 -441.4,-310.2 
							"/>
			<polyline class="st89" points="-450.2,-315.2 -439.6,-318.1 -439.9,-315.2 -448.7,-312.5 			"/>
			<polygon class="st90" points="-438.9,-309.1 -441.8,-310 -442.8,-308.8 -440.6,-308.1 -436.5,-303 -435.7,-302.8 -434.9,-303.6 
							"/>
			<polygon class="st90" points="-443.2,-310.4 -444.3,-309.3 -442.8,-308.8 -441.8,-310 			"/>
			<polyline class="st89" points="-448,-312.1 -439.9,-314 -440.2,-312.2 -446.8,-310.5 			"/>
			<polygon class="st72" points="-445.9,-302.9 -437.8,-305.8 -436,-303.8 -446.2,-300.3 			"/>
			<polygon class="st72" points="-445.6,-305.8 -439.1,-308.2 -438,-306.4 -445.9,-303.6 			"/>
			<polygon class="st51" points="-446.7,-306.3 -447.3,-299.6 -446.3,-299.3 -445.7,-299.9 -444.8,-306.3 -442.9,-308.5 
				-444.4,-309 			"/>
			<polygon class="st90" points="-446.9,-311.6 -450.1,-315.8 -451.2,-315.9 -451.6,-315.4 -447.8,-310.4 -444.2,-309.3 
				-443.2,-310.5 			"/>
		</g>
		<text transform="matrix(1 0 0 1 -309.3679 -272.8508)" style="font-family:'ArialMT'; font-size:12px;">Attack</text>
		<text transform="matrix(1 0 0 1 -309.3674 -250.111)" style="font-family:'ArialMT'; font-size:12px;">Food</text>
		<text transform="matrix(1 0 0 1 -311.0569 -204.8858)" style="font-family:'ArialMT'; font-size:12px;">Horniness</text>
		<text transform="matrix(1 0 0 1 -309.9004 -177.9822)" style="font-family:'ArialMT'; font-size:12px;">Water speed</text>
		<text transform="matrix(1 0 0 1 -308.2106 -154.9433)" style="font-family:'ArialMT'; font-size:12px;">Harvesting</text>
		<text transform="matrix(1 0 0 1 -309.3684 -226.4377)" style="font-family:'ArialMT'; font-size:12px;">Ground Speed</text>
	</g>
	<g>
		<polygon class="st0" points="-390.6,-312.2 -388,-310 -387.5,-310.6 -389.8,-313 		"/>
		<polygon class="st0" points="-389.4,-313.3 -387.2,-310.9 -386.4,-312 -386.4,-312.7 -387.5,-314.1 -388.4,-314.1 		"/>
		<path class="st0" d="M-391-311.8l-3.8,3.6l-0.5,3.1l3.1-0.6l3.8-4L-391-311.8z M-394-305.9l-0.6-0.6l0.4-1.3l1.7,1.6L-394-305.9z"
			/>
	</g>
</g>
<g>
	<polygon class="st64" points="-508.2,-2.1 -518.7,1.8 -518.2,14.8 -506.7,25.8 -497.2,14.4 -497.2,0.3 	"/>
	<polygon class="st65" points="-508.2,0.3 -515.5,3.8 -514.9,14 -507.5,18.3 -499.1,13.2 -499.8,2.4 	"/>
	<polygon class="st64" points="-510.4,13.8 -508.3,13.8 -503.4,13.8 -503.1,7.7 -502,7.7 -507.3,4.3 -512.5,7.7 -511,7.6 	"/>
	<polygon class="st65" points="-508.3,10.6 -505.6,10.7 -505.7,14.1 -507.8,14.1 	"/>
</g>
<g>
	<g id="Layer_1_3_">
		<polygon class="st66" points="146,-61.9 146,-106.8 -53.2,-100.5 -53.2,-61.9 		"/>
		<polygon class="st67" points="146,-120.2 134.2,-133 -33.1,-133 -53.2,-118.1 -53.2,-93.6 146,-86.2 		"/>
		<polygon class="st0" points="12.7,-127.3 -27,-127.3 -44.2,-110.1 -44.2,-81.9 14.2,-83.2 		"/>
		<path class="st44" d="M9.9-120.9"/>
		
			<image style="overflow:visible;enable-background:new    ;" width="698" height="611" xlink:href="3138F960C9C701D7.png"  transform="matrix(6.756946e-02 0 0 6.756946e-02 -38.358 -123.0086)">
		</image>
		<polygon class="st67" points="-44.2,-110.1 -27,-127.3 -41.4,-127.3 		"/>
		<polygon class="st69" points="17.5,-68 17,-81.8 17,-83.2 -47,-81.8 -47,-68 		"/>
		<text transform="matrix(1 0 0 1 -23.8479 -71.9932)" class="st0 st94" style="font-size:8.7643px;">Johns</text>
		<g>
			<g>
				<polygon class="st64" points="-35.8,-86 -43.7,-83.1 -43.2,-73.4 -34.6,-65.2 -27.5,-73.7 -27.5,-84.3 				"/>
				<polygon class="st65" points="-35.8,-84.2 -41.3,-81.6 -40.8,-74 -35.3,-70.8 -29,-74.5 -29.5,-82.6 				"/>
				<polygon class="st64" points="-37.5,-74.1 -35.9,-74.1 -32.2,-74.1 -32,-78.7 -31.1,-78.7 -35.1,-81.3 -39,-78.7 -37.9,-78.8 
									"/>
				<polygon class="st65" points="-35.9,-76.6 -33.8,-76.5 -33.9,-73.9 -35.5,-73.9 				"/>
			</g>
		</g>
	</g>
	<g>
		<g>
			<polygon class="st20" points="115.3,-101.4 121,-114.3 119.9,-115.3 117.7,-114.5 112.7,-103.5 106.7,-100 109.4,-97.9 			"/>
			<polyline class="st35" points="94.5,-114.9 118.8,-113.5 116.1,-107.4 95.8,-108 			"/>
			<polygon class="st31" points="113.9,-93.6 108.6,-97.6 105.6,-95.8 109.7,-92.8 114.7,-78.9 116.3,-78 118.4,-79 			"/>
			<polygon class="st31" points="105.8,-99.7 102.8,-97.9 105.6,-95.8 108.6,-97.6 			"/>
			<polyline class="st35" points="96.9,-106.7 115.4,-104.8 113.5,-101.4 98.4,-102.4 			"/>
			<polygon class="st36" points="94.8,-85.4 114,-85.9 116.3,-80.3 92.3,-80.1 			"/>
			<polygon class="st36" points="97.5,-91.4 112.8,-91.8 114,-87.3 95.3,-86.9 			"/>
			<polygon class="st20" points="95.5,-93.4 89.4,-79.4 91.4,-78.1 93.1,-78.8 99.6,-92 105.1,-95.3 102.3,-97.4 			"/>
			<polygon class="st31" points="98.9,-104.7 95.2,-116.2 93,-117.3 91.7,-116.4 96.1,-103 102.8,-97.9 105.8,-99.7 			"/>
		</g>
		<polygon class="st69" points="123.7,-84 125.8,-89.6 123.6,-95.1 86.7,-95.1 84.8,-88.2 87.7,-84 		"/>
		<g>
			<text transform="matrix(0.9943 -6.979814e-03 7.019826e-03 1 89.51 -86.9262)" class="st0 st94" style="font-size:7.1315px;">Species</text>
		</g>
	</g>
	<g>
		<g>
			<g>
				<polygon class="st64" points="53.7,-120.5 41.2,-115.9 41.9,-100.4 55.6,-87.3 66.9,-100.8 66.9,-117.7 				"/>
				<polygon class="st65" points="53.8,-117.7 45.1,-113.5 45.8,-101.4 54.6,-96.2 64.6,-102.2 63.8,-115.1 				"/>
				<polygon class="st65" points="53.6,-105.4 56.9,-105.3 56.8,-101.2 54.2,-101.2 				"/>
			</g>
		</g>
		<g>
			<polygon class="st64" points="55.9,-110.6 59.6,-107.6 60.4,-108.4 57,-111.8 			"/>
			<polygon class="st64" points="57.6,-112.3 60.8,-108.8 62,-110.4 61.9,-111.4 60.4,-113.4 59.1,-113.5 			"/>
			<path class="st64" d="M55.3-110.1l-5.5,5.2l-0.8,4.5l4.5-0.8L59-107L55.3-110.1z M51-101.6l-0.9-0.9l0.5-1.9L53-102L51-101.6z"/>
		</g>
		<polygon class="st69" points="71,-75.9 72.8,-84.5 70.9,-93.2 39,-93.2 37.3,-82.5 39.9,-75.9 		"/>
		<g>
			<text transform="matrix(0.9943 -6.979814e-03 7.019826e-03 1 41.4269 -86.1472)" class="st0 st94" style="font-size:6.1706px;">Move</text>
			<text transform="matrix(0.9943 -6.979814e-03 7.019826e-03 1 41.4788 -78.7473)" class="st0 st94" style="font-size:6.1706px;">Habitat</text>
		</g>
	</g>
</g>
<g>
	<polygon class="st40" points="-326.1,14.5 -325.3,-8 -344.3,-15.7 -361.6,-8.5 -362.8,12.9 -343.7,21.9 	"/>
	<polygon class="st41" points="-327.5,12.9 -326.8,-7.7 -344.3,-14.9 -360.2,-8.2 -361.3,11.5 -343.7,19.7 	"/>
	<polygon class="st58" points="-330,11.7 -329.4,-5.8 -344.2,-11.9 -357.7,-6.3 -358.7,10.5 -343.7,17.4 	"/>
	<polygon class="st59" points="-331.1,11.2 -330.6,-4.1 -344.2,-9.4 -356.6,-4.4 -357.5,10.2 -343.8,16.2 	"/>
</g>
<g>
	<g id="Layer_1_4_">
		<polygon class="st39" points="275.8,94.1 260,76.1 36.5,76.1 9.6,105.9 9.6,222.1 275.8,222.7 		"/>
		<polygon class="st0" points="102.3,90.4 49.3,90.4 26.3,115.2 26.3,155.8 104.3,154 		"/>
		<circle class="st43" cx="65.9" cy="123.7" r="29.6"/>
		<path class="st44" d="M96.1,95.5"/>
		<polygon class="st45" points="109.9,165.4 109.3,147 109.2,145.2 23.7,147 23.7,165.4 		"/>
	</g>
	<rect x="19.1" y="178.4" class="st91" width="249.2" height="33.5"/>
	<g>
		<rect x="143" y="97" class="st49" width="119.7" height="17.4"/>
		<rect x="143" y="121.5" class="st49" width="119.7" height="17.4"/>
		<rect x="143" y="146.3" class="st49" width="119.7" height="17.4"/>
		<g id="Layer_4_2_">
			<g>
				<path class="st24" d="M119.4,117.9"/>
				<polygon class="st25" points="138.5,128.6 137.3,127.7 135.3,129.6 134.4,129.6 135,131.9 135.5,131.8 137,133.6 137.9,133.1 
					138.2,132.4 137.1,130.8 138.5,129.9 				"/>
				<polygon class="st26" points="133.1,129.5 133.1,132 135,131.9 134.4,129.6 				"/>
				<polygon class="st25" points="128.2,128.7 125,122.6 122,122.3 118.7,124.1 116.7,130.3 117.6,135.5 120.7,138.3 123.9,138.3 
					127.2,133.9 				"/>
				<polygon class="st27" points="126.2,129.2 124.1,125.3 122.2,125.1 120,126.2 118.7,130.3 119.2,133.7 121.3,135.5 123.4,135.5 
					125.6,132.7 				"/>
				<polygon class="st25" points="122.9,129.1 123.5,131.3 122.2,132.4 121.4,129.9 				"/>
				<polygon class="st28" points="133.3,128.1 125.2,122.6 125,122.6 128.2,128.7 127.4,132.9 133.9,131.1 				"/>
				<polygon class="st29" points="123.9,138.3 132.2,134 133.9,131.1 127.4,132.9 127.2,133.9 				"/>
			</g>
		</g>
		<g>
			<g>
				<polygon class="st53" points="126.7,98.5 131.3,96.2 136.8,99.7 136.5,105.8 126.4,114.4 117.7,106.2 117.7,98.7 122.8,96.2 
									"/>
				<polygon class="st54" points="131.3,96.2 131.8,105.3 136.5,105.8 136.8,99.7 				"/>
				<polygon class="st55" points="131.8,105.3 126.5,109.4 126.4,114.4 136.5,105.8 				"/>
				<polygon class="st56" points="126.5,109.4 120.9,104.7 117.7,98.7 117.7,106.2 126.4,114.4 				"/>
				<polygon class="st57" points="126.5,98.7 124.4,103.8 126.5,109.4 120.9,104.7 122.9,101 				"/>
				<rect x="129.8" y="100.4" class="st92" width="4.1" height="11.2"/>
				<rect x="126.3" y="103.8" class="st92" width="11.2" height="4.1"/>
			</g>
		</g>
		<g>
			<polygon class="st30" points="133.4,163.2 130,158.6 126.7,153.9 134.8,157.4 131,151.6 129.5,149.5 120.5,163.6 126.4,166.2 			
				"/>
			<polygon class="st31" points="130,158.6 133.4,163.2 134.8,157.4 126.7,153.9 			"/>
			<line class="st12" x1="118.6" y1="159" x2="126.5" y2="162"/>
			<polygon class="st30" points="134.8,157.4 126.7,153.9 126.4,145.3 131,151.6 			"/>
			<path class="st14" d="M122.6,164.6"/>
			<path class="st14" d="M120.5,163.6"/>
			<path class="st15" d="M120.5,163.6"/>
			<polygon class="st32" points="129.5,149.5 126.4,145.3 120.5,153.3 126.6,153.9 			"/>
			<polygon class="st33" points="120.5,163.6 126.6,153.9 120.5,153.3 118.6,159 			"/>
			<polygon class="st34" points="121.7,155.9 120.5,159.1 122.3,162.8 126,163.9 128,162.3 123.2,159.9 			"/>
		</g>
	</g>
	<g>
		<g>
			<polygon class="st6" points="208.9,182.9 202.4,189.1 209.3,195.2 211.5,191.4 212.2,186.1 			"/>
			<polygon class="st7" points="211.5,191.4 207.1,189.9 209.3,195.2 			"/>
			<polygon class="st8" points="207.1,189.9 208.9,182.9 201.3,187.6 			"/>
			<polygon class="st9" points="189.1,192.1 186.4,198.4 193.6,205.2 196.6,199.4 196.7,194.1 			"/>
			<polygon class="st7" points="196.6,199.4 191.2,197.9 193.6,205.2 			"/>
			<polygon class="st8" points="191.2,197.9 189.1,192.1 186.4,198.4 			"/>
			<polygon class="st10" points="191.8,185.6 195.8,191.4 199.8,196.9 190.1,192.7 194.7,199.6 196.6,202.2 207.4,185.2 
				200.3,182.1 			"/>
			<polygon class="st11" points="195.8,191.4 191.8,185.6 190.1,192.7 199.8,196.9 			"/>
			<line class="st12" x1="209.5" y1="190.7" x2="200.2" y2="187.1"/>
			<polygon class="st13" points="190.1,192.7 199.8,196.9 200.3,207.2 194.7,199.6 			"/>
			<path class="st14" d="M204.8,184.1"/>
			<path class="st14" d="M207.4,185.2"/>
			<path class="st15" d="M207.4,185.2"/>
			<polygon class="st16" points="196.6,202.2 200.3,207.2 207.4,197.6 199.9,196.9 			"/>
			<polygon class="st17" points="207.4,185.2 199.9,196.9 207.4,197.6 209.5,190.7 			"/>
		</g>
		<text transform="matrix(0.9943 0 0 1 243.5459 200.3543)" class="st93 st94 st95">/</text>
	</g>
	<g>
		<polygon class="st40" points="63.5,206.5 64.3,181.5 43.3,172.9 24,180.9 22.5,204.8 43.9,214.7 		"/>
		<polygon class="st41" points="62,204.8 62.7,181.8 43.3,173.9 25.4,181.2 24.2,203.1 43.8,212.4 		"/>
		<polygon class="st58" points="59.1,203.4 59.7,183.9 43.3,177.2 28.2,183.4 27.2,202 43.8,209.8 		"/>
		<polygon class="st59" points="57.8,202.8 58.5,185.8 43.3,180 29.5,185.4 28.4,201.7 43.8,208.5 		"/>
	</g>
	<g>
		<polygon class="st60" points="49.1,191.3 51.8,184.4 51.2,184 49.8,184.5 47.5,190.4 44.2,192.6 45.8,193.5 		"/>
		<polyline class="st61" points="36.6,185.3 50.6,185 49.3,188.2 37.6,188.9 		"/>
		<polygon class="st62" points="48.6,195.5 45.4,193.7 43.7,194.7 46.2,196.1 49.6,203 50.6,203.5 51.7,202.8 		"/>
		<polygon class="st62" points="43.7,192.7 42,193.8 43.7,194.7 45.4,193.7 		"/>
		<polyline class="st61" points="38.2,189.4 48.9,189.7 48,191.4 39.4,191.7 		"/>
		<polygon class="st63" points="37.9,200.6 48.9,199.5 50.5,202.3 36.7,203.5 		"/>
		<polygon class="st63" points="39.3,197.4 48,196.5 48.8,198.8 38.2,199.8 		"/>
		<polygon class="st60" points="38,196.5 35.1,203.9 36.4,204.6 37.2,204 40.5,196.9 43.5,195 41.8,194 		"/>
		<polygon class="st62" points="39.6,190.4 36.9,184.7 35.6,184.2 34.9,184.8 37.9,191.4 42,193.8 43.7,192.7 		"/>
	</g>
	<g>
		<polygon class="st40" points="117,206.9 117.9,181.9 96.7,173.2 77.5,181.3 76.1,205.2 97.4,215.1 		"/>
		<polygon class="st41" points="115.4,205.1 116.2,182.1 96.7,174.1 79,181.6 77.8,203.5 97.4,212.7 		"/>
		<polygon class="st58" points="112.6,203.8 113.3,184.3 96.8,177.5 81.8,183.8 80.7,202.4 97.3,210.1 		"/>
		<polygon class="st59" points="111.4,203.2 112,186.2 96.8,180.4 82.9,185.8 82,202.1 97.3,208.9 		"/>
	</g>
	<g>
		<g>
			<polygon class="st64" points="97.2,182.8 87,185.5 86.8,197.1 97.1,207.5 106.7,198.1 107.5,185.6 			"/>
			<polygon class="st65" points="97.1,184.9 89.9,187.5 89.9,196.5 96.7,200.9 105,196.8 104.8,187.3 			"/>
			<polygon class="st64" points="94.2,196.7 96.2,196.8 100.8,197.2 101.4,191.7 102.5,191.8 97.7,188.5 92.6,191.2 94,191.2 			"/>
			<polygon class="st65" points="96.4,194 98.9,194.3 98.6,197.3 96.6,197.1 			"/>
		</g>
	</g>
	<g>
		<polygon class="st40" points="170.8,207 171.7,181.9 150.5,173.4 131.3,181.4 129.9,205.2 151.2,215.2 		"/>
		<polygon class="st41" points="169.2,205.2 170,182.2 150.5,174.3 132.8,181.7 131.6,203.7 151.2,212.8 		"/>
		<polygon class="st58" points="166.5,203.8 167.1,184.3 150.6,177.6 135.6,183.8 134.5,202.4 151.2,210.2 		"/>
		<polygon class="st59" points="165.2,203.3 165.8,186.3 150.6,180.4 136.8,185.8 135.8,202.1 151.1,208.9 		"/>
	</g>
	<g>
		<g>
			<polygon class="st37" points="163.5,203.4 153.5,203.4 139.7,188.3 142,186.6 155,200.2 163.5,200.4 			"/>
			<polygon class="st65" points="137.5,196.3 145,196.3 146.4,198 137.5,198 			"/>
			<polygon class="st65" points="139.8,199 147.3,199 148.9,200.7 139.8,200.7 			"/>
			<polygon class="st65" points="142.4,201.7 149.9,201.7 151.4,203.4 142.4,203.4 			"/>
			<path class="st35" d="M161.9,196.5l-3.6-1.4H154l-1.1-1.6h4.5l-0.3-1.8l-5.5,0.1l-1-1.3l6.2-0.2l-0.3-1.6l-2.7-2.2l-2.6,1.3
				l-3.6-5.6c0,0-5.6,4.1-5.7,4.1c-0.1,0,12.4,13.8,12.4,13.8h8.5L161.9,196.5z"/>
			<polyline class="st65" points="156.8,190.4 157.1,191.7 151.7,192 150.6,190.6 			"/>
			<polyline class="st65" points="157.4,193.5 158.3,195.1 154,195.1 152.9,193.5 			"/>
		</g>
	</g>
</g>
<g>
	<g id="Layer_1_5_">
		<polygon class="st39" points="-110.5,162.8 -126.2,137.2 -349.8,137.2 -376.6,167 -376.6,283.2 -110.5,283.8 		"/>
		<polygon class="st96" points="-117,230.7 -117.5,163.1 -131.9,143.5 -346.2,144.5 -369,169.8 -367.8,232.1 		"/>
		<polygon class="st0" points="-283.9,151.5 -337,151.5 -360,176.3 -360,216.9 -281.9,215.1 		"/>
		<circle class="st43" cx="-320.4" cy="184.8" r="29.6"/>
		<path class="st44" d="M-290.1,156.6"/>
		<polygon class="st45" points="-276.4,226.5 -276.9,208.1 -277,206.3 -362.5,208.1 -362.5,226.5 		"/>
		<text transform="matrix(1 0 0 1 -357.0514 219.4806)" class="st0 st94" style="font-size:9.7484px;">Stinky </text>
		<text transform="matrix(1 0 0 1 -317.4015 219.4806)" class="st0 st94" style="font-size:11.7079px;">John</text>
		<g>
			<polygon class="st46" points="-299.8,175.9 -298.9,179.2 -296.1,178.3 -295.9,179.4 -302.6,181.4 -299.4,184.8 -290.9,179.9 
				-290.4,173.6 -295.4,171.8 			"/>
			<polygon class="st46" points="-323.1,175.5 -313.6,168.8 -301.4,164.6 -304.4,172.2 -303.9,178.3 			"/>
			<polygon class="st47" points="-330.9,186.8 -333.8,198.8 -336.5,198.8 -337.2,203.5 -327.4,203.5 -327.4,187.6 			"/>
			<polyline class="st47" points="-323.9,186.6 -320.4,191.2 -313.2,197.2 -315,200.4 -318.5,200.8 -318.5,203.2 -309.2,203.2 
				-308.8,194.9 -312.1,184.3 			"/>
			<g>
				<g>
					<g>
						<polygon class="st47" points="-302.5,187.7 -299.6,186.9 -296.5,187.9 -298.1,193.3 -302.4,198.4 -305.2,196.3 -306.4,194 
							-307.9,189.3 						"/>
					</g>
					<polygon class="st47" points="-302.6,197 -300.4,198 -299.5,197.3 -301.4,195.3 -300.5,194.5 -297.8,194.7 -297.1,193.4 
						-299.4,191.2 -298.4,190.7 -296,191 -295.9,189.9 -297.8,188.2 					"/>
				</g>
			</g>
			<polygon class="st46" points="-329,188.1 -332,200.1 -334.8,200.1 -335.5,204.8 -325.6,204.8 -325.6,188.9 			"/>
			<polyline class="st46" points="-319.4,188.1 -316.2,192.6 -308.9,198.7 -310.6,201.8 -314.1,202.3 -314.1,204.6 -304.9,204.6 
				-304.2,196.4 -307.8,185.7 			"/>
			<polygon class="st46" points="-330.2,173.4 -337.2,180.5 -332.5,196.7 -318.9,197.5 -313,192.1 -299.4,189.9 -298.8,181.6 
				-303,176.9 			"/>
			<polygon class="st48" points="-333.8,179.3 -328.2,176 -306.4,181.5 -299.1,186.8 -298.8,181.6 -303,176.9 -330.2,173.4 			"/>
			<path class="st46" d="M-332.1,166.7L-344,169l-2.3,3.8l-4.7,1.5c0,0-0.6,2.1-0.5,2.5c0,0.4,1.5,5.6,1.5,5.6l10.2,0.8l9.9-0.7
				l3.9-7.8l-0.6-11.8L-332.1,166.7z"/>
		</g>
	</g>
	<g>
		<g id="Layer_3_3_">
			<polygon class="st49" points="-238.1,158.2 -132.9,158.2 -128.5,168.4 -134.2,175.9 -238.1,175.9 -242.9,167.1 			"/>
			<polygon class="st50" points="-235.8,160.3 -158.1,160.3 -154.9,168.1 -159.1,173.8 -235.8,173.8 -239.2,167.1 			"/>
			<polygon class="st49" points="-238.1,180.7 -132.9,180.7 -128.5,190.9 -134.2,198.4 -238.1,198.4 -242.9,189.6 			"/>
			<polygon class="st51" points="-236.6,183.3 -189.8,183.3 -187.8,190.5 -190.4,195.8 -236.6,195.8 -238.8,189.6 			"/>
			<polygon class="st49" points="-239.1,204.4 -133.9,204.4 -129.4,214.6 -135.1,222.1 -239.1,222.1 -243.9,213.2 			"/>
			<polygon class="st52" points="-235.6,206.8 -137.1,206.8 -132.9,214.2 -138.4,219.6 -235.6,219.6 -240.1,213.2 			"/>
		</g>
		<g id="Layer_4_3_">
			<g>
				<path class="st24" d="M-262.9,176.7"/>
				<polygon class="st25" points="-244.1,187.2 -245.1,186.4 -247.1,188.2 -248.1,188.2 -247.4,190.5 -246.9,190.4 -245.4,192.2 
					-244.6,191.7 -244.4,191 -245.4,189.4 -244.1,188.5 				"/>
				<polygon class="st26" points="-249.4,188.1 -249.4,190.6 -247.4,190.5 -248.1,188.2 				"/>
				<polygon class="st25" points="-254.1,187.3 -257.4,181.3 -260.4,181 -263.5,182.8 -265.5,188.9 -264.6,194.1 -261.5,196.8 
					-258.4,196.8 -255.1,192.5 				"/>
				<polygon class="st27" points="-256.1,187.8 -258.2,184 -260.1,183.8 -262.2,184.9 -263.5,188.9 -263,192.3 -260.9,194.1 
					-258.9,194.1 -256.8,191.3 				"/>
				<polygon class="st25" points="-259.4,187.7 -258.9,189.9 -260.1,191 -260.9,188.5 				"/>
				<polygon class="st28" points="-249.1,186.8 -257.1,181.3 -257.4,181.3 -254.1,187.3 -254.9,191.5 -248.6,189.7 				"/>
				<polygon class="st29" points="-258.4,196.8 -250.2,192.6 -248.6,189.7 -254.9,191.5 -255.1,192.5 				"/>
			</g>
		</g>
		<g>
			<g>
				<polygon class="st53" points="-257.6,160.3 -253.6,158.3 -248.6,161.4 -248.9,166.9 -257.9,174.6 -265.8,167.2 -265.8,160.5 
					-261.1,158.3 				"/>
				<polygon class="st54" points="-253.6,158.3 -253.1,166.4 -248.9,166.9 -248.6,161.4 				"/>
				<polygon class="st55" points="-253.1,166.4 -257.9,170.1 -257.9,174.6 -248.9,166.9 				"/>
				<polygon class="st56" points="-257.9,170.1 -262.9,165.9 -265.8,160.5 -265.8,167.2 -257.9,174.6 				"/>
				<polygon class="st57" points="-257.9,160.5 -259.8,165.1 -257.9,170.1 -262.9,165.9 -261,162.6 				"/>
				<rect x="-254.9" y="162" class="st23" width="3.7" height="10"/>
				<rect x="-258" y="165.1" class="st23" width="10" height="3.7"/>
			</g>
		</g>
		<g>
			<polygon class="st30" points="-249.2,220.6 -252.4,216.4 -255.4,212.2 -248.1,215.3 -251.4,210.1 -252.9,208.2 -260.9,220.9 
				-255.6,223.3 			"/>
			<polygon class="st31" points="-252.4,216.4 -249.2,220.6 -248.1,215.3 -255.4,212.2 			"/>
			<line class="st12" x1="-262.6" y1="216.8" x2="-255.6" y2="219.5"/>
			<polygon class="st30" points="-248.1,215.3 -255.4,212.2 -255.6,204.4 -251.4,210.1 			"/>
			<path class="st14" d="M-259,221.8"/>
			<path class="st14" d="M-260.9,220.9"/>
			<path class="st15" d="M-260.9,220.9"/>
			<polygon class="st32" points="-252.9,208.2 -255.6,204.4 -260.9,211.6 -255.4,212.2 			"/>
			<polygon class="st33" points="-260.9,220.9 -255.4,212.2 -260.9,211.6 -262.6,216.8 			"/>
			<polygon class="st34" points="-259.9,214 -260.9,216.9 -259.4,220.2 -255.9,221.2 -254.1,219.8 -258.5,217.6 			"/>
		</g>
	</g>
	<g>
		<g>
			<polygon class="st6" points="-164.6,246.9 -171.1,253.2 -164.1,259.3 -161.9,255.4 -161.2,250.2 			"/>
			<polygon class="st7" points="-161.9,255.4 -166.4,253.9 -164.1,259.3 			"/>
			<polygon class="st8" points="-166.4,253.9 -164.6,246.9 -172.1,251.7 			"/>
			<polygon class="st9" points="-184.4,256.2 -187.1,262.4 -179.9,269.3 -176.9,263.5 -176.8,258.2 			"/>
			<polygon class="st7" points="-176.9,263.5 -182.2,262 -179.9,269.3 			"/>
			<polygon class="st8" points="-182.2,262 -184.4,256.2 -187.1,262.4 			"/>
			<polygon class="st10" points="-181.6,249.7 -177.6,255.4 -173.6,261 -183.4,256.8 -178.8,263.7 -176.9,266.3 -166.1,249.3 
				-173.1,246.2 			"/>
			<polygon class="st11" points="-177.6,255.4 -181.6,249.7 -183.4,256.8 -173.6,261 			"/>
			<line class="st12" x1="-163.9" y1="254.8" x2="-173.2" y2="251.2"/>
			<polygon class="st13" points="-183.4,256.8 -173.6,261 -173.1,271.3 -178.8,263.7 			"/>
			<path class="st14" d="M-168.6,248.2"/>
			<path class="st14" d="M-166.1,249.3"/>
			<path class="st15" d="M-166.1,249.3"/>
			<polygon class="st16" points="-176.9,266.3 -173.1,271.3 -166.1,261.7 -173.6,261 			"/>
			<polygon class="st17" points="-166.1,249.3 -173.6,261 -166.1,261.7 -163.9,254.8 			"/>
		</g>
		<g>
			
				<text transform="matrix(1.0765 6.368487e-02 -5.908595e-02 0.9983 -158.7835 265.6809)" class="st94" style="fill:#1C1205; font-size:15.3915px;">5</text>
		</g>
		<text transform="matrix(0.9943 0 0 1 -143.3594 264.0329)" class="st93 st94 st95">/30</text>
	</g>
	<g>
		<polygon class="st40" points="-322.9,269.9 -322.1,247.5 -341,239.7 -358.4,246.9 -359.6,268.4 -340.5,277.3 		"/>
		<polygon class="st41" points="-324.2,268.4 -323.5,247.7 -341,240.6 -357,247.2 -358.1,266.9 -340.5,275.2 		"/>
		<polygon class="st58" points="-326.9,267.1 -326.2,249.6 -341,243.6 -354.5,249.2 -355.5,265.9 -340.5,272.9 		"/>
		<polygon class="st59" points="-328,266.6 -327.4,251.3 -341,246.1 -353.5,251 -354.4,265.6 -340.5,271.7 		"/>
	</g>
	<g>
		<polygon class="st60" points="-335.9,256.3 -333.4,250.1 -334,249.7 -335.1,250.2 -337.2,255.5 -340.2,257.4 -338.8,258.2 		"/>
		<polyline class="st61" points="-347,250.9 -334.5,250.6 -335.6,253.5 -346.1,254.1 		"/>
		<polygon class="st62" points="-336.2,260 -339.1,258.4 -340.6,259.3 -338.5,260.6 -335.4,266.8 -334.5,267.2 -333.5,266.6 		"/>
		<polygon class="st62" points="-340.6,257.5 -342.1,258.5 -340.6,259.3 -339.1,258.4 		"/>
		<polyline class="st61" points="-345.5,254.6 -336,254.8 -336.8,256.4 -344.5,256.6 		"/>
		<polygon class="st63" points="-345.9,264.6 -336,263.6 -334.5,266.1 -347,267.2 		"/>
		<polygon class="st63" points="-344.6,261.7 -336.8,260.9 -336,263 -345.5,263.9 		"/>
		<polygon class="st60" points="-345.8,260.9 -348.4,267.6 -347.2,268.2 -346.5,267.7 -343.5,261.3 -340.9,259.6 -342.4,258.7 		"/>
		<polygon class="st62" points="-344.4,255.5 -346.8,250.3 -348,249.9 -348.5,250.4 -345.9,256.4 -342.1,258.5 -340.6,257.5 		"/>
	</g>
	<g>
		<polygon class="st40" points="-269.1,271 -268.4,248.6 -287.4,240.8 -304.6,248 -305.9,269.5 -286.8,278.4 		"/>
		<polygon class="st41" points="-270.5,269.4 -269.9,248.8 -287.4,241.6 -303.2,248.3 -304.4,268 -286.8,276.2 		"/>
		<polygon class="st58" points="-273,268.2 -272.4,250.7 -287.2,244.6 -300.8,250.3 -301.8,267 -286.9,273.9 		"/>
		<polygon class="st59" points="-274.1,267.7 -273.6,252.4 -287.2,247.2 -299.8,252.1 -300.5,266.7 -286.9,272.8 		"/>
	</g>
	<g>
		<g>
			<polygon class="st64" points="-286.9,249.4 -296,251.8 -296.2,262.2 -287,271.6 -278.4,263.1 -277.6,251.9 			"/>
			<polygon class="st65" points="-287,251.3 -293.4,253.6 -293.4,261.7 -287.4,265.6 -279.9,262 -280,253.4 			"/>
			<polygon class="st64" points="-289.6,261.9 -287.9,262 -283.6,262.3 -283.1,257.4 -282.1,257.5 -286.4,254.5 -291,256.9 
				-289.8,256.9 			"/>
			<polygon class="st65" points="-287.6,259.4 -285.4,259.7 -285.6,262.4 -287.4,262.2 			"/>
		</g>
	</g>
	<g>
		<polygon class="st40" points="-216.6,270.3 -215.8,247.8 -234.8,240.1 -252.1,247.3 -253.2,268.7 -234.1,277.7 		"/>
		<polygon class="st41" points="-217.9,268.7 -217.2,248 -234.8,240.9 -250.6,247.6 -251.8,267.3 -234.1,275.5 		"/>
		<polygon class="st58" points="-220.4,267.4 -219.9,249.9 -234.6,243.9 -248.1,249.5 -249.1,266.2 -234.1,273.2 		"/>
		<polygon class="st59" points="-221.6,267 -221.1,251.7 -234.6,246.4 -247.1,251.3 -247.9,265.9 -234.2,272 		"/>
	</g>
	<g>
		<g>
			<polygon class="st37" points="-223.1,267.1 -232.1,267.1 -244.4,253.5 -242.4,252 -230.8,264.2 -223.1,264.4 			"/>
			<polygon class="st65" points="-246.4,260.7 -239.8,260.7 -238.4,262.2 -246.4,262.2 			"/>
			<polygon class="st65" points="-244.4,263.1 -237.6,263.1 -236.2,264.6 -244.4,264.6 			"/>
			<polygon class="st65" points="-242.1,265.5 -235.4,265.5 -233.9,267.1 -242.1,267.1 			"/>
			<path class="st35" d="M-224.6,260.9l-3.2-1.3h-3.9l-1-1.4h4l-0.3-1.6l-4.9,0.1l-0.9-1.2l5.6-0.2l-0.3-1.4l-2.4-2l-2.3,1.2l-3.2-5
				c0,0-5,3.7-5.1,3.7s11.1,12.4,11.1,12.4h7.6L-224.6,260.9z"/>
			<polyline class="st65" points="-229.1,255.4 -228.9,256.6 -233.8,256.8 -234.6,255.6 			"/>
			<polyline class="st65" points="-228.6,258.2 -227.8,259.6 -231.6,259.6 -232.6,258.2 			"/>
		</g>
	</g>
</g>
</svg>
